<?xml version="1.0" encoding="utf-8"?>
<!-- Generator: Adobe Illustrator 15.0.2, SVG Export Plug-In . SVG Version: 6.00 Build 0)  -->
<!DOCTYPE svg PUBLIC "-//W3C//DTD SVG 1.1//EN" "http://www.w3.org/Graphics/SVG/1.1/DTD/svg11.dtd">
<svg version="1.1" id="Layer_1" xmlns="http://www.w3.org/2000/svg" xmlns:xlink="http://www.w3.org/1999/xlink" x="0px" y="0px"
	 width="673px" height="240px" viewBox="0 0 673 240" enable-background="new 0 0 673 240" xml:space="preserve">
<g>
	<defs>
		<rect id="SVGID_1_" x="-21" y="-243" width="720" height="720"/>
	</defs>
	<clipPath id="SVGID_2_">
		<use xlink:href="#SVGID_1_"  overflow="visible"/>
	</clipPath>
	<path clip-path="url(#SVGID_2_)" fill="#15284B" d="M49.189,195.507l-0.024,9.712c-0.002,0.873-0.024,1.405-0.068,1.594
		c-0.042,0.188-0.16,0.28-0.356,0.272c-0.129-0.009-0.225-0.044-0.293-0.108l-0.278-0.3l-10.691-11.198l-0.128-0.128
		c-0.052-0.044-0.11-0.068-0.178-0.068c-0.162,0-0.243,0.173-0.243,0.521l-0.02,7.867l-0.011,0.483l0.035,0.825
		c0.057,0.513,0.201,0.865,0.429,1.057c0.228,0.192,0.676,0.341,1.349,0.433c0.278,0.032,0.416,0.128,0.416,0.297
		c0,0.152-0.088,0.228-0.268,0.228c-0.118,0-0.244-0.008-0.38-0.027c-0.092-0.017-0.461-0.036-1.105-0.072l-1.297-0.06l-0.611,0.02
		c-0.33,0-0.644,0.016-0.941,0.052c-0.222,0.024-0.378,0.04-0.47,0.04c-0.22,0-0.34-0.071-0.356-0.216
		c-0.008-0.113,0.112-0.209,0.356-0.285c0.713-0.22,1.195-0.516,1.445-0.893c0.253-0.376,0.376-0.98,0.381-1.813l0.018-7.887
		c0.002-1.341-0.227-2.394-0.691-3.162c-0.464-0.769-1.137-1.213-2.018-1.322c-0.23-0.031-0.344-0.115-0.344-0.26
		c0-0.144,0.094-0.216,0.28-0.216c0.044,0,0.11,0.004,0.204,0.012l0.521,0.013l0.853,0.027l0.204-0.012
		c0.202-0.008,0.36-0.012,0.468-0.012c0.212,0,0.424,0.111,0.637,0.336l11.668,12.106c0.186,0.196,0.304,0.288,0.356,0.28
		c0.084-0.008,0.13-0.084,0.14-0.22l0.014-5.737l0.016-1.566l-0.146-2.666c-0.084-0.655-0.294-1.125-0.627-1.396
		c-0.334-0.276-0.936-0.48-1.809-0.612c-0.246-0.036-0.368-0.137-0.368-0.285c0-0.144,0.124-0.216,0.368-0.216
		c0.112,0,0.288,0.013,0.534,0.032c0.585,0.06,1.368,0.088,2.352,0.092c0.525,0,0.945-0.02,1.259-0.063
		c0.271-0.048,0.479-0.072,0.623-0.068c0.22,0,0.34,0.08,0.356,0.24c0.008,0.104-0.076,0.176-0.256,0.22
		c-0.516,0.117-0.857,0.309-1.025,0.577c-0.164,0.271-0.248,0.777-0.25,1.517l-0.002,1.253L49.189,195.507z"/>
	<path clip-path="url(#SVGID_2_)" fill="#15284B" d="M57.577,197.648c-1.057-0.005-1.91,0.353-2.561,1.064
		c-0.648,0.713-0.974,1.65-0.976,2.812c-0.004,1.473,0.398,2.71,1.203,3.702c0.804,0.993,1.809,1.493,3.01,1.497
		c1.049,0,1.878-0.348,2.486-1.049c0.605-0.7,0.911-1.652,0.913-2.857c0.004-1.526-0.374-2.767-1.133-3.724
		C59.758,198.133,58.778,197.648,57.577,197.648 M57.901,197.184c1.527,0.005,2.834,0.496,3.927,1.474
		c1.089,0.98,1.634,2.146,1.632,3.495c-0.002,1.465-0.545,2.675-1.624,3.631c-1.079,0.957-2.442,1.43-4.085,1.426
		c-1.612-0.004-2.935-0.473-3.97-1.402c-1.037-0.936-1.553-2.125-1.549-3.574c0.004-1.405,0.556-2.599,1.662-3.579
		C54.998,197.668,56.333,197.184,57.901,197.184"/>
	<path clip-path="url(#SVGID_2_)" fill="#15284B" d="M68.586,199.318c0.985-1.401,1.894-2.103,2.726-2.103
		c0.26,0.004,0.607,0.145,1.033,0.433c0.428,0.288,0.651,0.517,0.667,0.696c0.01,0.116-0.126,0.328-0.407,0.637
		c-0.28,0.309-0.478,0.465-0.596,0.473c-0.06,0-0.244-0.092-0.559-0.276c-0.362-0.235-0.708-0.352-1.038-0.352
		c-0.517,0-0.947,0.168-1.294,0.508c-0.348,0.34-0.522,0.765-0.524,1.272l-0.008,4.129c-0.004,0.647,0.092,1.108,0.282,1.385
		c0.19,0.271,0.523,0.428,0.997,0.468l0.662,0.048c0.269,0.017,0.405,0.096,0.405,0.232c0,0.157-0.12,0.232-0.356,0.232
		c-0.06,0-0.261-0.02-0.601-0.06c-0.16-0.016-0.398-0.024-0.713-0.024l-0.916-0.012l-0.561-0.004c-0.664,0-1.137,0.016-1.417,0.056
		c-0.22,0.028-0.372,0.048-0.458,0.057c-0.231,0.008-0.343-0.068-0.343-0.226c0-0.128,0.13-0.216,0.395-0.264
		c0.364-0.076,0.598-0.216,0.706-0.424c0.106-0.208,0.16-0.653,0.162-1.333l0.012-4.974c0.002-0.888-0.462-1.333-1.395-1.337
		l-0.432,0.013c-0.196,0-0.292-0.08-0.292-0.236c0-0.096,0.064-0.168,0.192-0.216c0.076-0.017,0.168-0.028,0.278-0.032
		c0.797-0.068,1.739-0.408,2.824-1.017c0.11-0.053,0.209-0.08,0.293-0.089c0.196-0.008,0.292,0.124,0.292,0.393l-0.012,0.22
		L68.586,199.318z"/>
	<path clip-path="url(#SVGID_2_)" fill="#15284B" d="M77.379,198.633l-0.014,5.829c-0.002,0.761,0.116,1.249,0.352,1.474
		c0.347,0.333,0.841,0.501,1.485,0.501c0.517,0,0.955-0.08,1.312-0.252l0.662-0.289l0.076-0.021c0.1,0,0.153,0.04,0.153,0.124
		c0,0.253-0.337,0.529-1.008,0.821c-0.67,0.292-1.295,0.44-1.871,0.44c-1.95-0.004-2.922-0.933-2.917-2.787l0.014-5.845l-1.13-0.004
		c-0.223,0-0.331-0.056-0.331-0.176c0-0.108,0.11-0.244,0.333-0.416c0.992-0.765,1.753-1.53,2.28-2.294
		c0.23-0.345,0.39-0.513,0.486-0.513c0.116,0,0.176,0.1,0.176,0.304l-0.056,2.002l2.708,0.008c0.373,0,0.661-0.06,0.867-0.184
		c0.126-0.084,0.22-0.133,0.278-0.141c0.094-0.016,0.134,0.028,0.126,0.128c0,0.04-0.038,0.137-0.114,0.292l-0.294,0.669
		c-0.094,0.225-0.28,0.336-0.56,0.336L77.379,198.633z"/>
	<path clip-path="url(#SVGID_2_)" fill="#15284B" d="M85.23,199.094c1.093-1.229,2.284-1.838,3.571-1.834
		c1.193,0.004,2.16,0.381,2.896,1.129c0.739,0.753,1.107,1.734,1.105,2.947l-0.008,3.675c-0.004,0.585,0.103,0.989,0.315,1.205
		c0.21,0.216,0.66,0.376,1.347,0.477c0.228,0.032,0.342,0.116,0.342,0.256c0,0.141-0.116,0.208-0.344,0.208
		c-0.102,0-0.31-0.012-0.623-0.035c-0.628-0.04-1.165-0.061-1.613-0.061c-0.749-0.004-1.297,0.016-1.656,0.056
		c-0.202,0.021-0.334,0.032-0.394,0.032c-0.228,0-0.346-0.076-0.354-0.216c-0.01-0.096,0.076-0.172,0.254-0.236
		c0.433-0.148,0.701-0.276,0.801-0.396c0.104-0.12,0.156-0.353,0.156-0.696l0.012-0.361l0.01-3.843
		c0.002-0.977-0.27-1.754-0.819-2.326c-0.548-0.575-1.283-0.864-2.206-0.868c-0.708,0-1.353,0.199-1.929,0.604
		c-0.577,0.404-0.865,0.857-0.865,1.361l-0.012,4.491c-0.002,0.788,0.094,1.302,0.288,1.533c0.196,0.236,0.669,0.396,1.423,0.493
		c0.289,0.036,0.433,0.132,0.433,0.284c0,0.128-0.094,0.192-0.283,0.192c-0.092,0-0.326-0.021-0.7-0.057
		c-0.304-0.027-0.951-0.044-1.936-0.044c-0.34,0-0.828,0.021-1.467,0.057c-0.28,0.02-0.476,0.031-0.587,0.031
		c-0.204,0-0.31-0.06-0.318-0.184c-0.008-0.132,0.09-0.229,0.293-0.28c0.502-0.137,0.808-0.293,0.924-0.473
		c0.114-0.176,0.172-0.597,0.176-1.261l0.028-12.066c0.002-0.949-0.28-1.41-0.848-1.381l-0.651,0.032
		c-0.066,0-0.126-0.013-0.176-0.036c-0.06-0.032-0.09-0.081-0.09-0.153c0-0.112,0.098-0.192,0.296-0.24
		c0.535-0.111,1.129-0.312,1.786-0.596l0.997-0.429c0.104-0.044,0.192-0.068,0.268-0.068c0.144,0,0.216,0.084,0.216,0.256
		c0,0.045-0.008,0.142-0.026,0.277c-0.008,0.132-0.014,0.328-0.014,0.592L85.23,199.094z"/>
	<path clip-path="url(#SVGID_2_)" fill="#15284B" d="M118.012,192.576l0.4,2.782l0.041,0.289l-0.041,0.115
		c-0.044,0.072-0.108,0.108-0.192,0.116c-0.1,0.008-0.252-0.152-0.454-0.485c-1.582-2.529-3.729-3.799-6.444-3.807
		c-2.163-0.004-3.871,0.597-5.122,1.806c-1.251,1.205-1.878,2.862-1.884,4.96c-0.004,2.414,0.685,4.389,2.068,5.922
		c1.383,1.536,3.167,2.306,5.347,2.31c1.273,0.004,2.526-0.304,3.755-0.921c1.233-0.616,2.088-1.369,2.564-2.25
		c0.222-0.408,0.392-0.62,0.511-0.624c0.136-0.008,0.204,0.063,0.204,0.22l-0.014,0.128l-0.05,0.256l-0.297,1.422l-0.052,0.209
		c-0.036,0.199-0.234,0.407-0.6,0.624c-1.96,1.133-4.12,1.697-6.474,1.689c-2.73-0.004-4.928-0.749-6.595-2.226
		c-1.666-1.482-2.497-3.423-2.492-5.833c0.008-2.41,0.876-4.408,2.61-5.997c1.733-1.594,3.903-2.382,6.513-2.378
		c1.79,0.004,3.433,0.376,4.933,1.112l0.508,0.244l0.202,0.084l0.216,0.068c0.042,0,0.106-0.032,0.191-0.092
		c0.188-0.124,0.316-0.185,0.384-0.185C117.884,192.136,117.972,192.284,118.012,192.576"/>
	<path clip-path="url(#SVGID_2_)" fill="#15284B" d="M126.275,202.437c-1.315,0.104-2.332,0.373-3.049,0.805
		c-0.716,0.432-1.075,0.985-1.079,1.661c0,0.533,0.168,0.953,0.509,1.265c0.34,0.313,0.803,0.469,1.385,0.469
		c0.707,0.005,1.301-0.208,1.782-0.629c0.296-0.268,0.444-0.691,0.444-1.276L126.275,202.437z M126.275,201.973l0.004-1.43
		c0-0.881-0.18-1.494-0.543-1.834c-0.49-0.46-1.15-0.692-1.983-0.695c-1.117-0.006-1.678,0.428-1.682,1.284
		c0,0.252,0.056,0.544,0.165,0.872c0.052,0.141,0.079,0.262,0.087,0.369c0.009,0.136-0.076,0.208-0.252,0.208
		c-0.396-0.004-0.756-0.08-1.081-0.236c-0.322-0.155-0.484-0.324-0.484-0.513c0.002-0.476,0.288-0.993,0.857-1.541
		c0.764-0.745,1.777-1.117,3.042-1.113c1.153,0.005,2.046,0.236,2.681,0.705c0.634,0.469,0.95,1.129,0.949,1.978l-0.011,4.536
		c-0.004,0.717,0.092,1.229,0.281,1.533c0.192,0.305,0.51,0.461,0.96,0.461c0.127,0,0.229-0.005,0.305-0.017
		c0.152-0.036,0.254-0.052,0.304-0.052c0.144-0.008,0.212,0.048,0.204,0.164c-0.008,0.136-0.208,0.28-0.6,0.42
		c-0.393,0.14-0.775,0.213-1.149,0.213c-0.697-0.005-1.325-0.396-1.886-1.186c-1.229,0.845-2.366,1.269-3.415,1.266
		c-0.797,0-1.427-0.201-1.898-0.589c-0.468-0.393-0.7-0.917-0.7-1.573c0.004-0.889,0.448-1.578,1.337-2.066
		S124.159,202.26,126.275,201.973"/>
	<path clip-path="url(#SVGID_2_)" fill="#15284B" d="M134.554,199.479c0.985-1.405,1.894-2.106,2.726-2.103
		c0.261,0,0.607,0.145,1.033,0.43c0.429,0.288,0.651,0.52,0.667,0.695c0.01,0.116-0.126,0.329-0.406,0.638
		c-0.281,0.308-0.479,0.468-0.597,0.476c-0.06,0-0.244-0.096-0.558-0.28c-0.363-0.231-0.709-0.352-1.039-0.352
		c-0.517,0-0.947,0.168-1.294,0.508c-0.348,0.34-0.522,0.765-0.524,1.273l-0.008,4.131c-0.004,0.645,0.092,1.108,0.282,1.382
		c0.19,0.271,0.523,0.432,0.997,0.468l0.663,0.048c0.268,0.017,0.404,0.097,0.404,0.232c0,0.156-0.12,0.231-0.356,0.231
		c-0.06,0-0.261-0.02-0.601-0.06c-0.16-0.016-0.398-0.02-0.712-0.024l-0.917-0.012h-0.561c-0.664-0.004-1.137,0.012-1.417,0.052
		c-0.22,0.032-0.372,0.053-0.458,0.057c-0.23,0.008-0.343-0.068-0.343-0.225c0-0.128,0.131-0.216,0.395-0.264
		c0.364-0.072,0.598-0.216,0.706-0.424c0.107-0.209,0.16-0.653,0.163-1.334l0.012-4.968c0.002-0.889-0.463-1.337-1.396-1.337
		l-0.432,0.008c-0.196,0-0.292-0.08-0.292-0.236c0-0.096,0.064-0.168,0.192-0.216c0.076-0.016,0.168-0.028,0.278-0.032
		c0.797-0.068,1.74-0.404,2.825-1.013c0.11-0.057,0.208-0.084,0.292-0.092c0.196-0.009,0.292,0.124,0.292,0.396l-0.012,0.221
		L134.554,199.479z"/>
	<path clip-path="url(#SVGID_2_)" fill="#15284B" d="M144.819,197.856c-1.059-0.004-1.914,0.353-2.562,1.064
		c-0.649,0.713-0.975,1.65-0.977,2.812c-0.004,1.473,0.396,2.71,1.203,3.703c0.806,0.992,1.809,1.492,3.01,1.497
		c1.051,0,1.878-0.349,2.484-1.05c0.607-0.703,0.913-1.652,0.917-2.857c0.002-1.526-0.376-2.768-1.137-3.728
		C147.001,198.341,146.02,197.856,144.819,197.856 M145.143,197.393c1.525,0.004,2.834,0.496,3.923,1.473
		c1.093,0.981,1.638,2.146,1.634,3.495c-0.004,1.466-0.545,2.675-1.626,3.631c-1.077,0.957-2.438,1.43-4.083,1.426
		c-1.609-0.004-2.935-0.473-3.972-1.405c-1.032-0.933-1.551-2.127-1.547-3.575c0.002-1.405,0.557-2.595,1.66-3.579
		C142.237,197.876,143.574,197.389,145.143,197.393"/>
	<path clip-path="url(#SVGID_2_)" fill="#15284B" d="M155.604,190.871l-0.032,13.604c0,0.632,0.076,1.121,0.238,1.461
		c0.186,0.388,0.711,0.649,1.575,0.781c0.237,0.04,0.361,0.116,0.369,0.24c0.008,0.172-0.082,0.26-0.269,0.26
		c-0.076,0-0.188-0.017-0.332-0.048c-0.128-0.024-0.318-0.036-0.572-0.036l-1.109,0.008h-0.665
		c-0.807-0.004-1.303,0.008-1.489,0.028c-0.272,0.04-0.434,0.056-0.484,0.056c-0.223,0-0.337-0.072-0.345-0.224
		c-0.008-0.128,0.111-0.225,0.357-0.284c0.38-0.102,0.636-0.233,0.77-0.397c0.13-0.168,0.198-0.432,0.198-0.804l0.033-12.851
		c0-0.714-0.271-1.069-0.813-1.069l-0.637,0.02c-0.084,0-0.156-0.008-0.216-0.023c-0.1-0.04-0.152-0.104-0.152-0.192
		c0-0.108,0.112-0.192,0.332-0.249c0.29-0.06,0.555-0.132,0.793-0.216l0.778-0.288c0.597-0.216,1.011-0.399,1.24-0.553
		c0.102-0.064,0.188-0.096,0.256-0.096c0.128-0.005,0.19,0.164,0.188,0.513L155.604,190.871z"/>
	<path clip-path="url(#SVGID_2_)" fill="#15284B" d="M161.425,192.648c0.204,0,0.412,0.151,0.625,0.465l0.304,0.443
		c0.088,0.108,0.128,0.204,0.128,0.292c0.008,0.177-0.136,0.426-0.436,0.741c-0.299,0.32-0.537,0.48-0.717,0.477
		c-0.17,0-0.396-0.156-0.676-0.465c-0.281-0.312-0.421-0.561-0.421-0.736c0-0.181,0.156-0.428,0.468-0.744
		C161.013,192.804,161.253,192.644,161.425,192.648 M162.19,205.275c-0.002,0.552,0.062,0.921,0.192,1.104
		c0.132,0.188,0.408,0.309,0.833,0.364l0.584,0.056c0.306,0.04,0.453,0.136,0.445,0.297c-0.008,0.128-0.125,0.192-0.345,0.192
		c-0.144,0-0.42-0.021-0.828-0.056c-0.229-0.021-0.527-0.028-0.893-0.028l-0.815-0.016l-0.931,0.044
		c-0.17,0.008-0.3,0.02-0.396,0.035c-0.22,0.021-0.372,0.032-0.458,0.032c-0.231,0-0.343-0.072-0.343-0.216
		c0-0.116,0.076-0.201,0.228-0.249l0.243-0.068c0.27-0.084,0.46-0.231,0.566-0.439s0.16-0.541,0.16-1.005l0.012-5.044
		c0.004-0.642-0.064-1.058-0.2-1.253c-0.134-0.193-0.426-0.289-0.877-0.289c-0.32,0-0.476-0.061-0.468-0.185
		c0.008-0.104,0.226-0.216,0.653-0.34c0.476-0.144,1.081-0.388,1.813-0.737l0.677-0.287c0.11,0.008,0.166,0.1,0.166,0.279
		L162.19,205.275z"/>
	<path clip-path="url(#SVGID_2_)" fill="#15284B" d="M168.784,199.29c1.137-1.226,2.318-1.834,3.539-1.834
		c1.357,0.004,2.426,0.513,3.213,1.529c0.542,0.696,0.81,1.758,0.806,3.179l-0.008,2.774l-0.012,0.349l0.036,0.557
		c0.092,0.512,0.449,0.813,1.067,0.896l0.535,0.071c0.228,0.029,0.346,0.109,0.354,0.229c0.008,0.164-0.13,0.244-0.418,0.244
		c-0.092,0-0.259-0.013-0.495-0.036c-0.278-0.04-0.794-0.057-1.547-0.061l-1.257,0.032h-0.481l-0.368,0.021l-0.176-0.036
		c-0.06-0.032-0.09-0.088-0.09-0.176c0-0.12,0.078-0.197,0.23-0.229l0.38-0.088c0.341-0.08,0.511-0.356,0.513-0.836l0.008-3.992
		c0.004-1.073-0.266-1.897-0.809-2.482c-0.542-0.584-1.315-0.877-2.318-0.881c-0.704,0-1.331,0.189-1.881,0.565
		c-0.549,0.376-0.823,0.809-0.825,1.293l-0.01,4.424l0.014,0.348l0.01,0.581c0.042,0.652,0.628,1.009,1.763,1.072
		c0.281,0.028,0.421,0.109,0.421,0.253c0,0.145-0.098,0.212-0.293,0.212c-0.144,0-0.36-0.023-0.648-0.067
		c-0.16-0.017-0.56-0.028-1.197-0.028c-1.345-0.004-2.152,0.012-2.414,0.048c-0.264,0.024-0.433,0.036-0.509,0.036
		c-0.162,0-0.238-0.06-0.228-0.188c0.008-0.096,0.088-0.172,0.24-0.228c0.433-0.137,0.725-0.305,0.873-0.505
		c0.148-0.204,0.224-0.529,0.224-0.973l0.014-5.232c0.002-0.549-0.07-0.921-0.214-1.117s-0.414-0.296-0.813-0.296l-0.548,0.008
		c-0.076,0-0.144-0.016-0.202-0.048c-0.076-0.029-0.114-0.085-0.114-0.164c0-0.113,0.112-0.188,0.332-0.229
		c0.566-0.088,1.115-0.244,1.641-0.469l0.673-0.3c0.264-0.117,0.428-0.188,0.496-0.221c0.121-0.061,0.221-0.092,0.309-0.092
		c0.152,0,0.218,0.111,0.2,0.337c-0.008,0.124-0.012,0.271-0.012,0.439L168.784,199.29z"/>
	<path clip-path="url(#SVGID_2_)" fill="#15284B" d="M185.337,202.576c-1.313,0.104-2.33,0.373-3.047,0.805
		c-0.716,0.433-1.076,0.985-1.078,1.661c-0.002,0.533,0.168,0.953,0.508,1.267c0.34,0.312,0.803,0.468,1.383,0.468
		c0.709,0.004,1.302-0.208,1.782-0.629c0.296-0.269,0.444-0.692,0.446-1.277L185.337,202.576z M185.337,202.112l0.004-1.429
		c0.002-0.882-0.178-1.493-0.54-1.834c-0.493-0.46-1.153-0.692-1.984-0.696c-1.119,0-1.679,0.428-1.681,1.285
		c0,0.252,0.054,0.544,0.162,0.872c0.052,0.141,0.082,0.261,0.088,0.369c0.008,0.136-0.076,0.208-0.252,0.208
		c-0.397,0-0.755-0.08-1.079-0.236c-0.322-0.156-0.487-0.325-0.485-0.513c0.002-0.477,0.286-0.993,0.855-1.541
		c0.765-0.745,1.779-1.117,3.042-1.113c1.154,0.004,2.046,0.236,2.683,0.705c0.632,0.472,0.949,1.129,0.949,1.977l-0.012,4.536
		c-0.002,0.717,0.092,1.229,0.282,1.534c0.19,0.308,0.51,0.46,0.959,0.46c0.128,0,0.228-0.004,0.304-0.016
		c0.154-0.036,0.256-0.053,0.306-0.053c0.144-0.008,0.212,0.048,0.202,0.164c-0.008,0.141-0.208,0.28-0.6,0.42
		c-0.392,0.142-0.773,0.212-1.147,0.212c-0.699,0-1.327-0.396-1.886-1.184c-1.229,0.844-2.368,1.269-3.416,1.265
		c-0.795,0-1.426-0.2-1.896-0.589c-0.471-0.392-0.703-0.917-0.701-1.573c0.002-0.889,0.449-1.576,1.337-2.065
		C181.72,202.789,183.224,202.4,185.337,202.112"/>
	<path clip-path="url(#SVGID_2_)" fill="#15284B" d="M204.16,195.923c1.001,0.004,1.851,0.324,2.552,0.965
		c0.705,0.645,1.053,1.425,1.051,2.334c-0.002,0.913-0.354,1.686-1.061,2.326c-0.705,0.64-1.557,0.961-2.558,0.957
		c-0.999-0.004-1.852-0.325-2.552-0.969c-0.703-0.646-1.053-1.417-1.051-2.33c0.002-0.913,0.356-1.69,1.061-2.33
		C202.308,196.239,203.161,195.919,204.16,195.923"/>
	<path clip-path="url(#SVGID_2_)" fill="#15284B" d="M225.444,191.175c0.909,0.004,1.673,0.124,2.302,0.364l0.877,0.337
		c0.076,0.036,0.152,0.052,0.228,0.052c0.1,0,0.204-0.04,0.304-0.116l0.18-0.141c0.024-0.032,0.072-0.048,0.14-0.048
		c0.213-0.004,0.317,0.185,0.317,0.573c0,0.128,0.054,0.52,0.162,1.169l0.2,1.192c0.042,0.256,0.062,0.412,0.062,0.477
		c0,0.241-0.092,0.36-0.272,0.36c-0.138,0-0.276-0.188-0.414-0.561c-0.303-0.841-0.919-1.529-1.852-2.074
		c-0.933-0.544-1.974-0.82-3.123-0.82c-0.913-0.004-1.675,0.24-2.289,0.729c-0.613,0.493-0.921,1.104-0.923,1.838
		c-0.002,0.648,0.196,1.209,0.592,1.681c0.346,0.405,0.725,0.701,1.135,0.89c0.41,0.184,1.419,0.524,3.027,1.013
		c3.128,0.945,4.692,2.479,4.688,4.612c-0.004,1.44-0.585,2.622-1.74,3.539c-1.155,0.917-2.636,1.373-4.442,1.369
		c-0.652-0.005-1.369-0.093-2.154-0.265c-0.784-0.172-1.357-0.368-1.721-0.593c-0.152-0.092-0.252-0.192-0.304-0.296
		c-0.05-0.104-0.124-0.372-0.226-0.81c-0.018-0.06-0.123-0.411-0.317-1.052c-0.218-0.697-0.326-1.189-0.326-1.485
		c0-0.232,0.088-0.345,0.26-0.337c0.156,0.009,0.293,0.2,0.413,0.572c0.302,0.961,0.942,1.771,1.921,2.422
		c0.981,0.653,2.044,0.981,3.195,0.985c1.165,0,2.154-0.308,2.963-0.932c0.808-0.625,1.213-1.387,1.217-2.282
		c0-0.861-0.369-1.586-1.113-2.174c-0.381-0.302-1.482-0.737-3.299-1.297c-1.878-0.581-3.207-1.226-3.988-1.931
		c-0.784-0.705-1.172-1.617-1.169-2.738c0.002-1.25,0.515-2.266,1.538-3.051C222.518,191.563,223.834,191.171,225.444,191.175"/>
	<path clip-path="url(#SVGID_2_)" fill="#15284B" d="M237.867,198.076c-1.059-0.004-1.914,0.354-2.562,1.065
		c-0.649,0.717-0.975,1.649-0.977,2.811c-0.004,1.474,0.396,2.71,1.203,3.703c0.806,0.997,1.809,1.493,3.01,1.497
		c1.051,0.004,1.878-0.348,2.484-1.049c0.607-0.701,0.913-1.653,0.917-2.858c0.002-1.525-0.376-2.763-1.137-3.723
		C240.049,198.562,239.068,198.08,237.867,198.076 M238.191,197.616c1.525,0.004,2.834,0.492,3.924,1.47
		c1.092,0.98,1.637,2.146,1.633,3.494c-0.004,1.466-0.545,2.679-1.625,3.632c-1.077,0.957-2.439,1.433-4.084,1.429
		c-1.609-0.004-2.935-0.477-3.971-1.405c-1.033-0.932-1.552-2.126-1.548-3.575c0.002-1.404,0.557-2.598,1.66-3.579
		C235.285,198.097,236.622,197.612,238.191,197.616"/>
	<path clip-path="url(#SVGID_2_)" fill="#15284B" d="M253.98,205.939c-0.985,1.153-2.182,1.733-3.589,1.73
		c-1.187-0.006-2.112-0.342-2.777-1.01c-0.664-0.673-0.992-1.605-0.99-2.803l0.014-0.764l0.01-3.836
		c0.002-0.396-0.086-0.668-0.267-0.824c-0.176-0.157-0.506-0.244-0.988-0.27c-0.213-0.016-0.315-0.096-0.307-0.239
		c0.01-0.137,0.271-0.212,0.787-0.232l0.963-0.036c0.21-0.016,0.526-0.067,0.951-0.16c0.116-0.027,0.21-0.044,0.276-0.044
		c0.228,0,0.344,0.185,0.342,0.544v0.177l-0.064,5.181l-0.002,0.368l0.202,1.405c0.179,0.492,0.507,0.904,0.991,1.229
		c0.485,0.325,1.009,0.489,1.58,0.489c0.746,0.004,1.413-0.192,1.995-0.593c0.583-0.4,0.877-0.853,0.877-1.369l0.012-5.537
		c0.002-0.44-0.08-0.744-0.244-0.908c-0.166-0.161-0.473-0.241-0.921-0.245c-0.272,0-0.408-0.072-0.408-0.216
		c0.002-0.172,0.154-0.264,0.46-0.268l0.419-0.024l0.89-0.032c0.289-0.016,0.619-0.076,0.991-0.184
		c0.118-0.028,0.222-0.048,0.306-0.057c0.179-0.008,0.267,0.133,0.267,0.416l-0.019,7.526c-0.001,0.593,0.068,0.985,0.209,1.174
		c0.138,0.188,0.424,0.284,0.857,0.284h0.204l0.176-0.008c0.188,0,0.284,0.06,0.292,0.18c0.008,0.164-0.238,0.256-0.737,0.28
		l-0.802,0.044c-0.551,0.023-0.907,0.052-1.067,0.092c-0.204,0.044-0.361,0.068-0.473,0.068c-0.27,0-0.404-0.364-0.404-1.085
		L253.98,205.939z"/>
	<path clip-path="url(#SVGID_2_)" fill="#15284B" d="M261.825,199.073l-0.014,5.829c-0.002,0.757,0.116,1.249,0.352,1.474
		c0.346,0.333,0.841,0.497,1.485,0.501c0.517,0,0.955-0.084,1.312-0.253l0.662-0.288l0.076-0.021c0.1,0,0.152,0.04,0.152,0.124
		c0,0.253-0.336,0.525-1.007,0.821c-0.67,0.292-1.295,0.439-1.871,0.436c-1.95-0.004-2.923-0.932-2.917-2.781l0.014-5.846
		l-1.13-0.004c-0.223,0-0.331-0.06-0.331-0.176c0-0.108,0.11-0.248,0.332-0.42c0.993-0.761,1.754-1.526,2.28-2.294
		c0.23-0.341,0.391-0.509,0.487-0.509c0.116,0,0.176,0.1,0.176,0.3l-0.056,2.006l2.708,0.004c0.373,0.004,0.661-0.06,0.867-0.184
		c0.126-0.084,0.22-0.128,0.278-0.137c0.094-0.016,0.134,0.028,0.126,0.128c0,0.04-0.038,0.137-0.114,0.292l-0.294,0.665
		c-0.094,0.229-0.28,0.341-0.561,0.337L261.825,199.073z"/>
	<path clip-path="url(#SVGID_2_)" fill="#15284B" d="M269.675,199.53c1.093-1.226,2.284-1.833,3.571-1.833
		c1.193,0.004,2.16,0.38,2.897,1.133c0.738,0.752,1.107,1.732,1.105,2.946l-0.008,3.671c-0.004,0.589,0.102,0.988,0.314,1.209
		c0.21,0.216,0.661,0.373,1.347,0.477c0.228,0.032,0.342,0.116,0.342,0.256c0,0.141-0.116,0.208-0.344,0.208
		c-0.102,0-0.31-0.012-0.623-0.036c-0.628-0.04-1.164-0.06-1.613-0.06c-0.749-0.004-1.297,0.016-1.655,0.056
		c-0.203,0.021-0.335,0.028-0.395,0.028c-0.228,0-0.346-0.072-0.354-0.212c-0.01-0.096,0.076-0.176,0.254-0.24
		c0.433-0.145,0.701-0.277,0.801-0.396c0.104-0.116,0.156-0.353,0.156-0.696l0.012-0.357l0.01-3.843
		c0.002-0.977-0.27-1.753-0.819-2.33c-0.548-0.572-1.283-0.861-2.206-0.865c-0.708,0-1.353,0.201-1.929,0.605
		c-0.577,0.404-0.865,0.857-0.865,1.361l-0.012,4.491c-0.002,0.789,0.094,1.302,0.288,1.533c0.196,0.232,0.669,0.397,1.424,0.489
		c0.288,0.04,0.432,0.136,0.432,0.288c0,0.128-0.094,0.191-0.282,0.188c-0.092,0-0.327-0.016-0.701-0.052
		c-0.304-0.028-0.951-0.044-1.936-0.048c-0.34,0-0.828,0.02-1.467,0.06c-0.28,0.021-0.476,0.032-0.586,0.032
		c-0.205,0-0.31-0.06-0.319-0.184c-0.008-0.132,0.09-0.229,0.293-0.28c0.502-0.141,0.808-0.297,0.924-0.473
		c0.115-0.181,0.173-0.601,0.176-1.266l0.029-12.065c0.002-0.949-0.281-1.409-0.849-1.377l-0.651,0.031
		c-0.066,0-0.126-0.012-0.176-0.035c-0.06-0.032-0.09-0.084-0.09-0.156c0-0.113,0.098-0.189,0.296-0.237
		c0.535-0.116,1.129-0.312,1.786-0.596l0.997-0.429c0.104-0.049,0.192-0.068,0.268-0.068c0.144,0,0.216,0.084,0.216,0.253
		c0,0.048-0.008,0.14-0.026,0.28c-0.008,0.132-0.014,0.328-0.014,0.592L269.675,199.53z"/>
	<path clip-path="url(#SVGID_2_)" fill="#15284B" d="M302.459,193.017l0.4,2.782l0.038,0.289l-0.04,0.115
		c-0.042,0.072-0.106,0.108-0.19,0.116c-0.102,0.008-0.254-0.156-0.456-0.489c-1.58-2.529-3.729-3.799-6.444-3.803
		c-2.162-0.004-3.871,0.598-5.12,1.802c-1.249,1.209-1.878,2.862-1.884,4.96c-0.006,2.414,0.685,4.393,2.068,5.926
		c1.381,1.532,3.167,2.302,5.345,2.31c1.273,0,2.526-0.304,3.759-0.921c1.229-0.616,2.083-1.369,2.562-2.25
		c0.22-0.408,0.39-0.62,0.511-0.628c0.133-0.004,0.202,0.068,0.202,0.224l-0.013,0.128l-0.052,0.257l-0.296,1.421l-0.052,0.209
		c-0.034,0.199-0.232,0.407-0.596,0.624c-1.964,1.133-4.12,1.693-6.478,1.689c-2.73-0.008-4.928-0.753-6.593-2.229
		c-1.668-1.479-2.499-3.423-2.493-5.833c0.007-2.406,0.875-4.408,2.609-5.993c1.733-1.594,3.905-2.386,6.515-2.378
		c1.788,0.004,3.433,0.372,4.93,1.112l0.509,0.244l0.204,0.08l0.216,0.072c0.04,0,0.104-0.032,0.193-0.092
		c0.184-0.124,0.312-0.185,0.38-0.185C302.33,192.576,302.417,192.721,302.459,193.017"/>
	<path clip-path="url(#SVGID_2_)" fill="#15284B" d="M310.721,202.872c-1.313,0.108-2.33,0.373-3.047,0.806
		c-0.718,0.436-1.077,0.989-1.08,1.666c0,0.527,0.172,0.948,0.51,1.265c0.342,0.309,0.803,0.468,1.383,0.468
		c0.709,0,1.301-0.208,1.784-0.629c0.294-0.268,0.444-0.695,0.446-1.276L310.721,202.872z M310.723,202.412l0.002-1.429
		c0.004-0.885-0.18-1.493-0.542-1.834c-0.491-0.46-1.152-0.696-1.984-0.696c-1.117-0.004-1.678,0.425-1.679,1.281
		c0,0.256,0.054,0.544,0.164,0.876c0.049,0.137,0.08,0.261,0.086,0.365c0.008,0.14-0.076,0.208-0.253,0.208
		c-0.396,0-0.756-0.08-1.076-0.232c-0.325-0.155-0.487-0.328-0.485-0.513c0-0.476,0.284-0.993,0.853-1.545
		c0.765-0.745,1.778-1.113,3.042-1.109c1.153,0,2.046,0.236,2.683,0.705c0.632,0.468,0.948,1.125,0.948,1.974l-0.011,4.54
		c-0.002,0.717,0.092,1.229,0.282,1.533c0.19,0.305,0.51,0.456,0.959,0.46c0.128,0,0.228-0.008,0.304-0.02
		c0.152-0.032,0.256-0.048,0.308-0.048c0.144-0.008,0.208,0.048,0.2,0.164c-0.008,0.136-0.208,0.275-0.598,0.42
		c-0.394,0.14-0.775,0.213-1.151,0.213c-0.697-0.004-1.325-0.401-1.884-1.189c-1.229,0.849-2.368,1.27-3.417,1.27
		c-0.796-0.004-1.427-0.201-1.895-0.593c-0.471-0.393-0.703-0.913-0.701-1.569c0.002-0.889,0.449-1.578,1.335-2.066
		C307.104,203.09,308.606,202.7,310.723,202.412"/>
	<path clip-path="url(#SVGID_2_)" fill="#15284B" d="M319,199.914c0.985-1.4,1.894-2.102,2.726-2.102
		c0.261,0,0.609,0.144,1.033,0.433c0.429,0.288,0.653,0.517,0.669,0.696c0.004,0.116-0.128,0.329-0.408,0.637
		c-0.281,0.309-0.481,0.464-0.597,0.472c-0.06,0-0.246-0.092-0.558-0.279c-0.363-0.232-0.711-0.349-1.04-0.349
		c-0.516-0.004-0.944,0.168-1.293,0.509c-0.348,0.34-0.522,0.765-0.524,1.272L319,205.331c-0.004,0.648,0.092,1.109,0.282,1.381
		c0.19,0.276,0.523,0.433,0.995,0.473l0.665,0.048c0.268,0.016,0.404,0.096,0.404,0.232c0,0.156-0.12,0.232-0.356,0.232
		c-0.06,0-0.26-0.021-0.599-0.06c-0.162-0.017-0.4-0.024-0.714-0.024l-0.919-0.012l-0.561-0.004c-0.662,0-1.133,0.016-1.415,0.056
		c-0.22,0.028-0.372,0.048-0.46,0.056c-0.228,0.004-0.343-0.067-0.343-0.228c0-0.128,0.132-0.217,0.396-0.261
		c0.364-0.076,0.6-0.217,0.708-0.425c0.106-0.208,0.161-0.652,0.161-1.333l0.012-4.972c0.004-0.889-0.463-1.334-1.394-1.337
		l-0.432,0.011c-0.196,0-0.294-0.079-0.294-0.24c0-0.096,0.066-0.163,0.194-0.212c0.076-0.016,0.168-0.027,0.28-0.031
		c0.797-0.068,1.738-0.408,2.823-1.018c0.112-0.052,0.208-0.084,0.292-0.088c0.196-0.008,0.292,0.124,0.292,0.392l-0.012,0.222
		L319,199.914z"/>
	<path clip-path="url(#SVGID_2_)" fill="#15284B" d="M329.261,198.293c-1.057,0-1.91,0.356-2.558,1.068
		c-0.649,0.713-0.977,1.65-0.977,2.808c-0.004,1.477,0.396,2.71,1.201,3.703c0.808,0.996,1.813,1.492,3.014,1.496
		c1.049,0.005,1.878-0.344,2.482-1.045c0.609-0.704,0.913-1.656,0.913-2.861c0.004-1.522-0.372-2.764-1.129-3.724
		C331.447,198.781,330.466,198.297,329.261,198.293 M329.589,197.833c1.525,0.004,2.834,0.491,3.923,1.473
		c1.093,0.977,1.638,2.142,1.634,3.495c-0.004,1.465-0.545,2.675-1.621,3.627c-1.081,0.957-2.442,1.434-4.088,1.429
		c-1.609-0.003-2.935-0.472-3.967-1.405c-1.037-0.932-1.558-2.125-1.554-3.574c0.004-1.405,0.561-2.599,1.662-3.579
		C326.683,198.317,328.02,197.828,329.589,197.833"/>
	<path clip-path="url(#SVGID_2_)" fill="#15284B" d="M340.05,191.311l-0.032,13.604c0,0.632,0.076,1.121,0.24,1.461
		c0.184,0.384,0.709,0.644,1.573,0.781c0.237,0.036,0.36,0.116,0.369,0.24c0.008,0.172-0.084,0.256-0.27,0.256
		c-0.079,0-0.188-0.017-0.332-0.044c-0.128-0.024-0.319-0.04-0.571-0.04l-1.109,0.012l-0.665-0.004
		c-0.809,0-1.305,0.008-1.489,0.032c-0.272,0.04-0.436,0.056-0.485,0.056c-0.224,0-0.336-0.076-0.344-0.228
		c-0.008-0.129,0.112-0.221,0.356-0.28c0.381-0.102,0.637-0.233,0.769-0.397c0.132-0.168,0.2-0.436,0.2-0.808l0.032-12.852
		c0-0.709-0.268-1.068-0.812-1.068l-0.637,0.023c-0.084,0-0.156-0.008-0.216-0.023c-0.1-0.04-0.152-0.104-0.152-0.192
		c0-0.108,0.112-0.192,0.332-0.249c0.288-0.063,0.557-0.132,0.793-0.22l0.78-0.288c0.593-0.212,1.005-0.397,1.238-0.553
		c0.104-0.061,0.188-0.092,0.256-0.092c0.128-0.009,0.191,0.163,0.188,0.513L340.05,191.311z"/>
	<path clip-path="url(#SVGID_2_)" fill="#15284B" d="M345.867,193.084c0.209,0,0.412,0.156,0.625,0.47l0.308,0.439
		c0.084,0.112,0.128,0.208,0.128,0.292c0.008,0.18-0.14,0.429-0.44,0.745c-0.296,0.316-0.535,0.476-0.713,0.476
		c-0.172,0-0.396-0.155-0.68-0.468c-0.276-0.308-0.421-0.557-0.421-0.736c0-0.177,0.161-0.425,0.469-0.74
		C345.455,193.24,345.698,193.084,345.867,193.084 M346.632,205.715c0,0.553,0.063,0.918,0.196,1.105
		c0.128,0.184,0.407,0.304,0.833,0.36l0.584,0.06c0.304,0.036,0.451,0.136,0.439,0.297c-0.008,0.128-0.12,0.192-0.344,0.192
		c-0.145,0-0.42-0.021-0.828-0.057c-0.229-0.02-0.525-0.027-0.889-0.027l-0.817-0.017l-0.932,0.044
		c-0.169,0.005-0.301,0.017-0.394,0.032c-0.224,0.024-0.376,0.036-0.46,0.036c-0.228-0.004-0.344-0.072-0.344-0.216
		c0.004-0.121,0.08-0.205,0.232-0.249l0.239-0.068c0.273-0.084,0.461-0.231,0.564-0.439c0.108-0.208,0.165-0.541,0.165-1.005
		l0.012-5.044c0-0.642-0.063-1.058-0.2-1.253c-0.137-0.193-0.429-0.289-0.877-0.294c-0.324,0-0.479-0.06-0.468-0.18
		c0.008-0.107,0.224-0.22,0.648-0.34c0.476-0.144,1.08-0.392,1.816-0.737l0.677-0.288c0.108,0.009,0.164,0.101,0.164,0.28
		L346.632,205.715z"/>
	<path clip-path="url(#SVGID_2_)" fill="#15284B" d="M353.229,199.73c1.138-1.226,2.318-1.838,3.535-1.834
		c1.357,0.004,2.431,0.513,3.215,1.529c0.54,0.696,0.809,1.758,0.805,3.179l-0.004,2.774l-0.013,0.349l0.036,0.557
		c0.088,0.512,0.445,0.808,1.065,0.896l0.533,0.071c0.228,0.028,0.348,0.105,0.355,0.226c0.008,0.168-0.132,0.248-0.42,0.248
		c-0.092,0-0.257-0.013-0.493-0.04c-0.28-0.036-0.796-0.057-1.549-0.057l-1.253,0.032l-0.485-0.004l-0.368,0.024l-0.176-0.036
		c-0.06-0.032-0.088-0.093-0.088-0.181c0-0.121,0.076-0.192,0.232-0.225l0.38-0.092c0.337-0.076,0.509-0.353,0.509-0.832
		l0.012-3.992c0-1.073-0.268-1.901-0.809-2.482c-0.544-0.584-1.317-0.881-2.318-0.881c-0.704-0.004-1.333,0.185-1.881,0.565
		c-0.549,0.376-0.825,0.809-0.825,1.293l-0.012,4.424l0.012,0.348l0.013,0.581c0.04,0.652,0.629,1.009,1.766,1.072
		c0.28,0.024,0.42,0.109,0.42,0.249c-0.004,0.144-0.1,0.216-0.296,0.216c-0.145,0-0.361-0.023-0.649-0.067
		c-0.159-0.021-0.56-0.028-1.192-0.028c-1.35-0.004-2.154,0.012-2.418,0.048c-0.265,0.024-0.433,0.036-0.508,0.036
		c-0.16,0-0.236-0.064-0.229-0.192c0.009-0.096,0.093-0.168,0.245-0.225c0.432-0.136,0.72-0.308,0.868-0.508
		c0.152-0.2,0.225-0.524,0.229-0.97l0.013-5.231c0-0.549-0.072-0.921-0.218-1.117c-0.144-0.196-0.412-0.296-0.812-0.3l-0.545,0.012
		c-0.076,0-0.145-0.016-0.204-0.048c-0.076-0.032-0.112-0.089-0.112-0.169c0-0.108,0.108-0.184,0.328-0.224
		c0.569-0.093,1.117-0.248,1.642-0.469l0.677-0.304c0.261-0.113,0.429-0.185,0.497-0.217c0.115-0.064,0.22-0.092,0.304-0.092
		c0.152,0,0.22,0.111,0.204,0.337c-0.008,0.124-0.013,0.271-0.017,0.439V199.73z"/>
	<path clip-path="url(#SVGID_2_)" fill="#15284B" d="M369.783,203.013c-1.317,0.108-2.334,0.377-3.051,0.809
		c-0.716,0.433-1.077,0.985-1.077,1.661c-0.003,0.529,0.169,0.953,0.509,1.267c0.34,0.308,0.801,0.468,1.381,0.468
		c0.709,0,1.306-0.208,1.786-0.629c0.296-0.269,0.444-0.696,0.444-1.277L369.783,203.013z M369.783,202.553l0.004-1.429
		c0-0.886-0.18-1.493-0.545-1.834c-0.488-0.46-1.153-0.696-1.981-0.696c-1.116-0.004-1.678,0.424-1.682,1.281
		c0,0.256,0.056,0.544,0.165,0.877c0.047,0.14,0.08,0.26,0.088,0.367c0.008,0.137-0.076,0.204-0.253,0.204
		c-0.396,0-0.756-0.08-1.081-0.231c-0.324-0.156-0.483-0.329-0.483-0.514c0-0.476,0.287-0.992,0.856-1.545
		c0.764-0.744,1.777-1.112,3.038-1.108c1.153,0,2.05,0.235,2.683,0.705c0.637,0.468,0.952,1.125,0.948,1.973l-0.012,4.54
		c0,0.717,0.096,1.229,0.285,1.534c0.188,0.304,0.508,0.456,0.961,0.46c0.124,0,0.228-0.008,0.304-0.021
		c0.152-0.031,0.252-0.048,0.304-0.048c0.145-0.008,0.212,0.048,0.204,0.164c-0.008,0.136-0.208,0.28-0.6,0.42
		c-0.394,0.141-0.777,0.213-1.149,0.213c-0.696-0.004-1.325-0.4-1.886-1.188c-1.229,0.848-2.366,1.272-3.415,1.269
		c-0.796-0.004-1.429-0.201-1.897-0.593c-0.469-0.388-0.7-0.913-0.7-1.569c0.004-0.889,0.447-1.577,1.337-2.065
		C366.164,203.229,367.665,202.841,369.783,202.553"/>
	<path clip-path="url(#SVGID_2_)" fill="#15284B" d="M388.604,196.363c1.001,0,1.849,0.324,2.554,0.965
		c0.701,0.645,1.049,1.421,1.049,2.334c-0.004,0.913-0.355,1.686-1.061,2.326c-0.709,0.64-1.558,0.957-2.559,0.957
		c-1.001-0.004-1.854-0.329-2.554-0.969c-0.701-0.646-1.053-1.422-1.049-2.334c0-0.909,0.356-1.687,1.061-2.326
		C386.749,196.676,387.603,196.359,388.604,196.363"/>
	<path clip-path="url(#SVGID_2_)" fill="#15284B" d="M418.657,203.874l0.008-2.61c0-0.469-0.112-0.793-0.336-0.961
		c-0.225-0.168-0.677-0.28-1.354-0.328c-0.327-0.032-0.5-0.128-0.508-0.297c-0.008-0.14,0.137-0.212,0.433-0.212l0.513,0.012
		l0.953,0.012c1.309,0.005,2.068,0,2.282-0.016c0.588-0.04,0.928-0.056,1.02-0.056c0.197,0,0.293,0.071,0.293,0.216
		c0,0.128-0.128,0.225-0.381,0.285c-0.644,0.136-0.968,0.56-0.973,1.272l0.016,0.372l-0.011,3.715l0.023,0.373l-0.077,0.172
		c-0.047,0.04-0.172,0.068-0.367,0.093c-0.229,0.031-0.58,0.172-1.058,0.416l-0.836,0.447c-1.658,0.869-3.435,1.303-5.333,1.299
		c-2.542-0.005-4.628-0.754-6.249-2.246c-1.626-1.49-2.434-3.396-2.431-5.713c0.005-2.435,0.873-4.461,2.603-6.077
		c1.729-1.622,3.892-2.427,6.485-2.418c1.001,0,2.058,0.136,3.183,0.399c1.125,0.265,2.019,0.598,2.687,0.993
		c0.104,0.061,0.177,0.092,0.217,0.092c0.061,0,0.14-0.031,0.244-0.092l0.304-0.208c0.061-0.044,0.116-0.069,0.176-0.069
		c0.152,0,0.229,0.182,0.229,0.546c0,0.168,0.023,0.432,0.076,0.788l0.125,1.09c0.04,0.296,0.1,0.588,0.176,0.88
		c0.04,0.14,0.064,0.253,0.064,0.337c0,0.188-0.089,0.284-0.258,0.292c-0.107,0.008-0.203-0.061-0.279-0.2
		c-0.66-1.233-1.674-2.238-3.046-3.011c-1.373-0.777-2.827-1.165-4.364-1.165c-1.918-0.008-3.483,0.652-4.7,1.978
		s-1.826,3.034-1.834,5.132c-0.004,2.255,0.688,4.141,2.082,5.657c1.389,1.521,3.115,2.282,5.173,2.286
		c1.969,0.004,3.507-0.625,4.62-1.89C418.521,205.15,418.657,204.623,418.657,203.874"/>
	<path clip-path="url(#SVGID_2_)" fill="#15284B" d="M425.37,201.383l4.313,0.013c0.668,0,1.005-0.12,1.005-0.368
		c0-0.601-0.284-1.165-0.857-1.681c-0.567-0.521-1.188-0.781-1.857-0.781c-0.696,0-1.277,0.248-1.737,0.753
		C425.771,199.826,425.482,200.516,425.37,201.383 M425.295,202.024l-0.017,0.252c-0.004,1.321,0.396,2.434,1.197,3.335
		c0.801,0.905,1.786,1.356,2.959,1.356c0.924,0.005,1.933-0.371,3.022-1.125c0.067-0.048,0.132-0.075,0.188-0.084
		c0.12-0.008,0.181,0.057,0.181,0.185c-0.004,0.232-0.301,0.561-0.893,0.98c-1.105,0.781-2.271,1.169-3.499,1.169
		c-1.381-0.004-2.538-0.483-3.475-1.444c-0.934-0.961-1.401-2.146-1.398-3.56c0.005-1.341,0.489-2.514,1.458-3.519
		s2.102-1.505,3.399-1.501c1.417,0.004,2.546,0.54,3.391,1.617c0.204,0.264,0.408,0.621,0.62,1.068
		c0.212,0.448,0.315,0.762,0.315,0.938c0,0.256-0.275,0.384-0.827,0.38l-0.941-0.012l-0.869-0.024L425.295,202.024z"/>
	<path clip-path="url(#SVGID_2_)" fill="#15284B" d="M439.556,198.557c-1.058-0.004-1.91,0.354-2.559,1.065
		c-0.648,0.713-0.977,1.649-0.977,2.811c-0.004,1.474,0.396,2.71,1.2,3.703c0.809,0.993,1.813,1.493,3.015,1.497
		c1.049,0,1.878-0.348,2.481-1.049c0.609-0.7,0.913-1.653,0.913-2.858c0.004-1.524-0.372-2.763-1.129-3.723
		C441.741,199.042,440.76,198.561,439.556,198.557 M439.883,198.097c1.525,0,2.834,0.492,3.924,1.469
		c1.093,0.981,1.638,2.146,1.634,3.495c-0.004,1.465-0.545,2.68-1.622,3.631c-1.081,0.957-2.442,1.431-4.087,1.427
		c-1.609,0-2.936-0.474-3.967-1.402c-1.037-0.932-1.559-2.125-1.555-3.575c0.004-1.405,0.562-2.598,1.662-3.579
		C436.978,198.577,438.314,198.093,439.883,198.097"/>
	<path clip-path="url(#SVGID_2_)" fill="#15284B" d="M450.564,200.227c0.988-1.401,1.896-2.102,2.726-2.098
		c0.265,0,0.609,0.14,1.037,0.429c0.424,0.288,0.648,0.52,0.664,0.696c0.009,0.115-0.128,0.328-0.408,0.637
		c-0.28,0.308-0.476,0.468-0.596,0.472c-0.061,0-0.245-0.092-0.557-0.275c-0.364-0.236-0.708-0.353-1.037-0.353
		c-0.517,0-0.948,0.168-1.298,0.508c-0.348,0.341-0.52,0.766-0.52,1.273l-0.012,4.128c0,0.648,0.096,1.109,0.284,1.385
		c0.188,0.272,0.52,0.429,0.996,0.469l0.66,0.048c0.273,0.016,0.409,0.096,0.405,0.231c0,0.157-0.116,0.233-0.355,0.233
		c-0.062,0-0.262-0.021-0.598-0.061c-0.164-0.016-0.399-0.02-0.717-0.023l-0.916-0.012l-0.561-0.005
		c-0.664,0-1.134,0.017-1.413,0.057c-0.225,0.027-0.376,0.048-0.46,0.056c-0.229,0.008-0.346-0.068-0.346-0.224
		c0-0.128,0.133-0.217,0.397-0.266c0.364-0.071,0.6-0.216,0.704-0.424c0.108-0.208,0.16-0.652,0.164-1.333l0.013-4.973
		c0-0.888-0.465-1.333-1.398-1.333l-0.432,0.008c-0.196,0-0.292-0.08-0.292-0.236c0-0.096,0.064-0.168,0.192-0.216
		c0.075-0.016,0.168-0.027,0.279-0.032c0.797-0.067,1.738-0.407,2.826-1.013c0.109-0.056,0.205-0.084,0.293-0.092
		c0.192-0.008,0.292,0.124,0.292,0.392l-0.012,0.222L450.564,200.227z"/>
	<path clip-path="url(#SVGID_2_)" fill="#15284B" d="M460.072,198.537c-0.641-0.004-1.181,0.256-1.625,0.78
		c-0.444,0.521-0.668,1.153-0.668,1.89c-0.006,0.966,0.231,1.754,0.708,2.37c0.477,0.617,1.076,0.925,1.81,0.93
		c0.692,0,1.253-0.248,1.681-0.741c0.426-0.496,0.642-1.149,0.646-1.953c0-0.941-0.241-1.722-0.726-2.342
		C461.414,198.85,460.805,198.537,460.072,198.537 M457.723,208.377c-0.809,0.324-1.21,0.857-1.213,1.599
		c0,0.62,0.28,1.104,0.844,1.457c0.569,0.355,1.342,0.532,2.33,0.532c1.157,0.004,2.122-0.196,2.896-0.597
		c0.775-0.404,1.165-0.913,1.169-1.525c0-0.717-0.598-1.076-1.794-1.08c-0.16,0-0.609-0.025-1.345-0.073l-1.35-0.084
		C458.627,208.565,458.111,208.489,457.723,208.377 M457.162,208.201v-0.08c-0.572-0.399-0.861-0.841-0.861-1.309
		c0.004-0.905,0.501-1.67,1.494-2.302c-1.125-0.613-1.686-1.569-1.682-2.867c0-1.004,0.372-1.841,1.116-2.506
		c0.745-0.664,1.675-0.997,2.795-0.993c1.009,0,1.913,0.231,2.719,0.701c0.288,0.168,0.496,0.252,0.62,0.256
		c0.309,0,0.648-0.101,1.032-0.292c0.382-0.2,0.613-0.393,0.689-0.585l0.164-0.44c0.028-0.084,0.096-0.132,0.204-0.14
		c0.144-0.008,0.216,0.088,0.216,0.28c0,0.155-0.068,0.457-0.2,0.9c-0.132,0.448-0.248,0.761-0.352,0.938
		c-0.145,0.256-0.393,0.428-0.753,0.523c-0.16,0.044-0.24,0.112-0.24,0.204c0,0.057,0.012,0.129,0.036,0.221
		c0.08,0.248,0.115,0.576,0.115,0.984c-0.004,0.877-0.399,1.643-1.188,2.298c-0.793,0.653-1.709,0.978-2.762,0.978
		c-0.449-0.004-0.953-0.053-1.515-0.145c-0.16-0.032-0.296-0.048-0.407-0.048c-0.265,0-0.521,0.132-0.77,0.404
		c-0.252,0.265-0.376,0.545-0.376,0.837c0,0.4,0.232,0.688,0.701,0.856c0.464,0.173,1.257,0.257,2.378,0.261
		c1.673,0.004,2.854,0.164,3.547,0.483c0.689,0.317,1.037,0.861,1.033,1.634c0,0.89-0.489,1.642-1.462,2.259
		c-0.973,0.615-2.162,0.921-3.567,0.917c-1.356,0-2.458-0.217-3.298-0.642c-0.845-0.428-1.266-0.988-1.261-1.681
		C455.329,209.21,455.94,208.577,457.162,208.201"/>
	<path clip-path="url(#SVGID_2_)" fill="#15284B" d="M469.152,193.377c0.203,0.004,0.412,0.155,0.625,0.469l0.308,0.444
		c0.08,0.107,0.124,0.203,0.124,0.292c0.008,0.176-0.136,0.425-0.437,0.74c-0.3,0.32-0.536,0.48-0.717,0.477
		c-0.168,0-0.396-0.156-0.676-0.468c-0.281-0.309-0.421-0.558-0.421-0.733c0-0.18,0.156-0.428,0.469-0.744
		S468.979,193.377,469.152,193.377 M469.917,206.008c-0.004,0.552,0.063,0.917,0.192,1.104c0.132,0.188,0.407,0.309,0.832,0.364
		l0.584,0.056c0.306,0.04,0.453,0.138,0.445,0.298c-0.008,0.128-0.124,0.191-0.344,0.191c-0.146,0-0.421-0.02-0.829-0.056
		c-0.229-0.021-0.529-0.028-0.893-0.028l-0.817-0.016l-0.928,0.044c-0.173,0.008-0.306,0.02-0.397,0.036
		c-0.22,0.02-0.372,0.031-0.46,0.031c-0.228,0-0.34-0.071-0.34-0.216c0-0.117,0.075-0.201,0.228-0.249l0.244-0.067
		c0.269-0.084,0.456-0.232,0.564-0.44s0.161-0.541,0.164-1.005l0.013-5.044c0-0.641-0.068-1.057-0.205-1.253
		c-0.136-0.193-0.428-0.288-0.877-0.288c-0.32,0-0.479-0.065-0.468-0.186c0.008-0.107,0.224-0.216,0.653-0.34
		c0.476-0.144,1.081-0.392,1.813-0.736l0.677-0.288c0.112,0.008,0.164,0.1,0.164,0.279L469.917,206.008z"/>
	<path clip-path="url(#SVGID_2_)" fill="#15284B" d="M478.996,203.272c-1.316,0.109-2.334,0.373-3.051,0.81
		c-0.716,0.432-1.076,0.984-1.076,1.662c-0.004,0.527,0.168,0.947,0.508,1.265c0.34,0.308,0.802,0.468,1.381,0.468
		c0.709,0,1.306-0.208,1.786-0.629c0.296-0.268,0.444-0.696,0.444-1.276L478.996,203.272z M478.996,202.813l0.004-1.429
		c0-0.885-0.18-1.493-0.545-1.834c-0.488-0.46-1.151-0.696-1.98-0.696c-1.117-0.004-1.679,0.424-1.682,1.281
		c0,0.256,0.057,0.544,0.164,0.876c0.048,0.137,0.08,0.261,0.088,0.365c0.009,0.14-0.075,0.208-0.252,0.208
		c-0.396,0-0.757-0.08-1.081-0.232c-0.324-0.155-0.484-0.328-0.484-0.513c0-0.476,0.288-0.992,0.856-1.545
		c0.766-0.745,1.777-1.113,3.038-1.109c1.153,0,2.05,0.236,2.683,0.705c0.637,0.468,0.952,1.125,0.948,1.974l-0.012,4.539
		c0,0.718,0.096,1.229,0.284,1.534s0.509,0.456,0.961,0.46c0.124,0,0.228-0.008,0.304-0.02c0.153-0.032,0.253-0.048,0.306-0.048
		c0.144-0.008,0.212,0.048,0.203,0.164c-0.008,0.136-0.208,0.275-0.6,0.42c-0.393,0.141-0.777,0.213-1.15,0.213
		c-0.695-0.004-1.324-0.401-1.885-1.189c-1.229,0.849-2.366,1.273-3.415,1.27c-0.796-0.004-1.429-0.201-1.896-0.593
		c-0.47-0.393-0.701-0.913-0.701-1.569c0.004-0.889,0.449-1.577,1.337-2.066C475.377,203.49,476.878,203.101,478.996,202.813"/>
	<path clip-path="url(#SVGID_2_)" fill="#15284B" d="M497.816,196.619c1.001,0.004,1.85,0.328,2.555,0.97
		c0.7,0.644,1.049,1.421,1.049,2.334c-0.004,0.913-0.356,1.685-1.062,2.325c-0.709,0.641-1.557,0.957-2.558,0.953
		c-1.001,0-1.854-0.324-2.554-0.965c-0.701-0.645-1.054-1.421-1.05-2.334c0-0.909,0.356-1.686,1.062-2.326
		C495.963,196.936,496.815,196.619,497.816,196.619"/>
	<path clip-path="url(#SVGID_2_)" fill="#15284B" d="M517.733,193.941l-0.008,4.584l0.008,0.22v0.3
		c0.036,0.209,0.276,0.313,0.726,0.313l1.089,0.027l0.416-0.012l1.493-0.02c0.776,0.004,1.345-0.104,1.697-0.313
		c0.356-0.212,0.58-0.576,0.672-1.097c0.04-0.185,0.124-0.276,0.266-0.276c0.163,0,0.24,0.12,0.22,0.361l-0.08,1.144
		c-0.008,0.146-0.012,0.382-0.012,0.705c-0.004,0.901,0.012,1.474,0.048,1.723c0.016,0.147,0.024,0.252,0.024,0.323
		c-0.005,0.185-0.08,0.276-0.237,0.276c-0.168,0-0.292-0.192-0.388-0.568c-0.101-0.413-0.208-0.688-0.324-0.837
		c-0.12-0.144-0.316-0.252-0.598-0.312c-0.563-0.136-1.396-0.205-2.493-0.205c-1.014-0.004-1.669,0.016-1.967,0.056
		c-0.304,0.037-0.468,0.125-0.504,0.266c-0.04,0.147-0.063,0.38-0.063,0.695l-0.013,4.32c0,0.617,0.177,1.105,0.533,1.469
		c0.356,0.369,0.832,0.553,1.438,0.553c0.288,0,0.436,0.076,0.443,0.229c0.013,0.172-0.111,0.26-0.384,0.26
		c-0.188-0.004-0.449-0.02-0.776-0.056c-0.28-0.036-0.696-0.052-1.249-0.056l-0.882-0.013l-0.979,0.008
		c-0.213,0-0.501,0.013-0.865,0.044c-0.301,0.017-0.517,0.024-0.653,0.032c-0.243,0.008-0.367-0.06-0.363-0.2
		c0-0.124,0.128-0.208,0.392-0.26c0.541-0.107,0.913-0.316,1.109-0.625c0.196-0.308,0.292-0.845,0.292-1.601l0.027-10.457
		c0-0.737-0.128-1.301-0.392-1.698c-0.168-0.264-0.356-0.439-0.556-0.532c-0.205-0.096-0.558-0.16-1.054-0.204
		c-0.203-0.012-0.313-0.08-0.319-0.203c-0.017-0.196,0.151-0.294,0.508-0.294c0.112,0,0.372,0.021,0.789,0.061
		c0.756,0.073,2.029,0.109,3.827,0.112c1.601,0.005,2.634-0.003,3.09-0.023l1.766-0.081c0.766-0.028,1.257-0.06,1.478-0.1
		c0.164-0.028,0.3-0.044,0.421-0.044c0.188,0,0.275,0.092,0.275,0.269c0,0.092-0.02,0.22-0.06,0.384
		c-0.148,0.5-0.221,1.178-0.224,2.022c0,0.355-0.113,0.536-0.337,0.536c-0.133,0-0.204-0.097-0.225-0.292
		c-0.023-0.236-0.067-0.485-0.136-0.733c-0.108-0.392-0.244-0.644-0.408-0.756c-0.165-0.113-0.533-0.193-1.097-0.241l-1.494-0.144
		c-0.477-0.04-1.073-0.061-1.801-0.061c-0.945-0.004-1.533,0.053-1.763,0.164C517.85,193.193,517.737,193.481,517.733,193.941"/>
	<path clip-path="url(#SVGID_2_)" fill="#15284B" d="M529.864,191.764l-0.032,13.604c0,0.632,0.076,1.121,0.24,1.461
		c0.184,0.385,0.709,0.645,1.572,0.781c0.237,0.036,0.361,0.116,0.369,0.236c0.009,0.172-0.084,0.26-0.269,0.26
		c-0.079,0-0.188-0.016-0.332-0.048c-0.128-0.024-0.32-0.036-0.572-0.036l-1.108,0.008h-0.665c-0.809,0-1.306,0.008-1.489,0.032
		c-0.272,0.04-0.438,0.056-0.484,0.056c-0.225,0-0.337-0.076-0.345-0.228c-0.008-0.128,0.112-0.221,0.357-0.28
		c0.38-0.101,0.636-0.233,0.768-0.401c0.132-0.164,0.2-0.432,0.2-0.804l0.032-12.851c0-0.709-0.269-1.069-0.813-1.069l-0.637,0.024
		c-0.084,0-0.156-0.009-0.216-0.024c-0.101-0.044-0.152-0.108-0.152-0.193c0-0.111,0.112-0.195,0.332-0.248
		c0.289-0.063,0.557-0.136,0.793-0.22l0.78-0.288c0.593-0.216,1.005-0.396,1.237-0.553c0.104-0.06,0.188-0.092,0.257-0.092
		c0.128-0.008,0.191,0.164,0.188,0.513L529.864,191.764z"/>
	<path clip-path="url(#SVGID_2_)" fill="#15284B" d="M538.304,198.793c-1.057-0.004-1.91,0.354-2.56,1.065
		c-0.651,0.713-0.976,1.649-0.979,2.807c-0.005,1.477,0.4,2.714,1.205,3.707c0.804,0.993,1.809,1.493,3.01,1.493
		c1.049,0.004,1.878-0.344,2.486-1.045c0.604-0.704,0.909-1.653,0.913-2.858c0.004-1.524-0.372-2.767-1.133-3.727
		C540.484,199.278,539.505,198.793,538.304,198.793 M538.628,198.329c1.524,0.004,2.834,0.492,3.927,1.473
		c1.089,0.981,1.634,2.146,1.63,3.495c-0.005,1.466-0.545,2.675-1.622,3.631c-1.077,0.953-2.441,1.431-4.083,1.427
		c-1.614-0.005-2.935-0.474-3.972-1.406s-1.553-2.125-1.549-3.575c0.004-1.405,0.556-2.594,1.66-3.579
		C535.725,198.813,537.063,198.325,538.628,198.329"/>
	<path clip-path="url(#SVGID_2_)" fill="#15284B" d="M549.313,200.463c0.985-1.401,1.895-2.103,2.727-2.103
		c0.261,0,0.608,0.145,1.032,0.434c0.43,0.288,0.653,0.516,0.669,0.696c0.004,0.115-0.128,0.327-0.407,0.637
		c-0.281,0.308-0.481,0.464-0.598,0.472c-0.06,0-0.248-0.092-0.556-0.28c-0.365-0.231-0.713-0.348-1.041-0.348
		c-0.518-0.004-0.945,0.168-1.294,0.508s-0.521,0.766-0.524,1.273l-0.008,4.128c-0.004,0.647,0.092,1.109,0.28,1.381
		c0.192,0.276,0.524,0.432,0.997,0.472l0.665,0.049c0.268,0.016,0.403,0.096,0.403,0.231c0,0.157-0.119,0.233-0.355,0.233
		c-0.061,0-0.261-0.021-0.602-0.061c-0.159-0.016-0.399-0.023-0.712-0.023l-0.921-0.017h-0.56c-0.661,0-1.134,0.017-1.414,0.057
		c-0.22,0.027-0.372,0.048-0.46,0.056c-0.229,0.004-0.345-0.068-0.345-0.229c0.004-0.129,0.137-0.217,0.396-0.261
		c0.364-0.076,0.601-0.22,0.708-0.428c0.108-0.204,0.161-0.649,0.161-1.329l0.012-4.973c0.003-0.889-0.465-1.333-1.394-1.337
		l-0.433,0.012c-0.195,0-0.296-0.08-0.292-0.24c0-0.096,0.064-0.164,0.192-0.212c0.076-0.016,0.168-0.028,0.28-0.032
		c0.797-0.067,1.737-0.407,2.822-1.017c0.112-0.052,0.208-0.084,0.293-0.092c0.195-0.004,0.291,0.128,0.291,0.396l-0.012,0.222
		L549.313,200.463z"/>
	<path clip-path="url(#SVGID_2_)" fill="#15284B" d="M557.327,193.589c0.204,0,0.413,0.156,0.625,0.465l0.308,0.444
		c0.08,0.107,0.125,0.208,0.125,0.292c0.008,0.18-0.137,0.425-0.437,0.745c-0.3,0.315-0.537,0.476-0.717,0.476
		c-0.168,0-0.396-0.156-0.676-0.468c-0.281-0.313-0.421-0.557-0.421-0.737c0-0.176,0.155-0.424,0.469-0.744
		C556.915,193.745,557.155,193.589,557.327,193.589 M558.092,206.22c-0.004,0.548,0.064,0.917,0.192,1.101
		c0.132,0.188,0.408,0.309,0.833,0.364l0.584,0.061c0.304,0.035,0.453,0.136,0.445,0.297c-0.008,0.128-0.124,0.188-0.346,0.188
		c-0.144,0-0.42-0.016-0.828-0.056c-0.229-0.016-0.528-0.024-0.893-0.028l-0.816-0.016l-0.93,0.048
		c-0.172,0.004-0.304,0.016-0.396,0.032c-0.22,0.02-0.372,0.032-0.46,0.032c-0.229,0-0.341-0.068-0.341-0.213
		c0-0.12,0.076-0.205,0.229-0.249l0.244-0.071c0.268-0.08,0.456-0.229,0.563-0.437c0.108-0.208,0.16-0.545,0.164-1.009l0.013-5.044
		c0-0.641-0.068-1.057-0.204-1.249c-0.137-0.192-0.428-0.293-0.877-0.293c-0.32,0-0.48-0.06-0.469-0.184
		c0.009-0.104,0.225-0.217,0.653-0.336c0.477-0.145,1.081-0.393,1.813-0.737l0.677-0.288c0.112,0.008,0.164,0.1,0.164,0.276
		L558.092,206.22z"/>
	<path clip-path="url(#SVGID_2_)" fill="#15284B" d="M569.643,205.312l0.008-3.82c0.004-0.692-0.181-1.201-0.553-1.529
		c-0.832-0.732-1.825-1.101-2.975-1.104c-1.021,0-1.85,0.352-2.478,1.061c-0.634,0.709-0.949,1.642-0.949,2.799
		c-0.004,1.266,0.404,2.361,1.225,3.295c0.821,0.933,1.794,1.396,2.919,1.401c0.824,0.003,1.501-0.192,2.021-0.581
		C569.378,206.444,569.643,205.936,569.643,205.312 M569.639,206.712c-0.865,0.673-1.565,1.125-2.103,1.357
		c-0.54,0.236-1.145,0.352-1.826,0.348c-1.276,0-2.345-0.46-3.21-1.373c-0.869-0.913-1.301-2.042-1.297-3.383
		c0.004-1.48,0.524-2.729,1.565-3.747c1.036-1.017,2.313-1.521,3.818-1.517c1.025,0,2.05,0.28,3.071,0.828l0.008-4.567
		c0.004-1.466-0.424-2.178-1.289-2.134l-0.445,0.024c-0.06,0-0.115-0.009-0.168-0.024c-0.084-0.032-0.128-0.092-0.136-0.18
		c-0.02-0.161,0.104-0.253,0.369-0.285c0.876-0.097,1.873-0.452,2.99-1.062c0.092-0.052,0.172-0.076,0.24-0.076
		c0.129,0,0.191,0.084,0.191,0.254l0.013,0.208l-0.036,14.731c0,0.873,0.289,1.309,0.873,1.309l0.753-0.02l0.111,0.012
		c0.097,0.028,0.141,0.089,0.141,0.182c0,0.164-0.152,0.264-0.46,0.292c-0.35,0.031-0.569,0.052-0.661,0.067l-0.717,0.104
		c-0.561,0.076-0.937,0.156-1.125,0.24c-0.16,0.084-0.288,0.128-0.381,0.128c-0.195,0.004-0.296-0.185-0.291-0.576V206.712z"/>
	<path clip-path="url(#SVGID_2_)" fill="#15284B" d="M580.487,203.517c-1.313,0.104-2.33,0.373-3.046,0.806
		c-0.722,0.432-1.077,0.984-1.081,1.661c0,0.532,0.172,0.952,0.508,1.266c0.344,0.312,0.805,0.468,1.385,0.468
		c0.709,0.004,1.302-0.208,1.786-0.629c0.292-0.268,0.44-0.691,0.444-1.277L580.487,203.517z M580.487,203.053l0.004-1.429
		c0.004-0.881-0.18-1.493-0.544-1.834c-0.489-0.46-1.149-0.692-1.982-0.696c-1.117-0.004-1.677,0.429-1.677,1.285
		c-0.004,0.252,0.052,0.544,0.164,0.872c0.048,0.141,0.076,0.261,0.084,0.369c0.008,0.136-0.076,0.208-0.252,0.208
		c-0.397-0.004-0.757-0.08-1.077-0.236c-0.324-0.156-0.484-0.325-0.484-0.513c0-0.476,0.284-0.993,0.853-1.541
		c0.765-0.745,1.777-1.117,3.043-1.113c1.153,0.004,2.045,0.236,2.682,0.705c0.632,0.472,0.949,1.129,0.949,1.978l-0.012,4.535
		c0,0.718,0.092,1.229,0.284,1.534c0.188,0.305,0.508,0.46,0.957,0.46c0.128,0,0.228-0.004,0.304-0.016
		c0.152-0.036,0.256-0.052,0.308-0.052c0.145-0.009,0.208,0.048,0.2,0.164c-0.008,0.136-0.208,0.279-0.6,0.42
		c-0.393,0.14-0.773,0.213-1.149,0.213c-0.697-0.004-1.325-0.397-1.882-1.186c-1.229,0.845-2.37,1.27-3.419,1.266
		c-0.796,0-1.429-0.201-1.893-0.589c-0.474-0.393-0.705-0.917-0.701-1.573c0-0.89,0.444-1.578,1.333-2.066
		C576.872,203.73,578.373,203.341,580.487,203.053"/>
</g>
<g>
	<defs>
		<path id="SVGID_3_" d="M553.476,110.558c-34.171,1.391-64.347,8.235-93.307,16.744c-34.24,10.073-68.363,20.311-103.413,29.685
			c-26.752,7.168-55.267,12.669-86.47,12.966c-12.627,0.127-25.315-1.074-37.158-1.629c8.772,4.224,30.661,8.03,48.292,8.458
			c49.838,1.164,95.534-5.383,137.98-17.623c27.807-8.029,54.615-16.903,82.699-24.71c42.313-11.763,87.174-19.5,137.129-17.451
			c1.113,0.044,2.271-0.206,5.125-0.478c-3.295-0.819-4.896-1.283-6.576-1.631c-18.471-3.795-37.529-4.967-56.793-4.967
			C571.848,109.921,562.661,110.185,553.476,110.558"/>
	</defs>
	<clipPath id="SVGID_4_">
		<use xlink:href="#SVGID_3_"  overflow="visible"/>
	</clipPath>
	
		<linearGradient id="SVGID_5_" gradientUnits="userSpaceOnUse" x1="-21" y1="477.0801" x2="-20" y2="477.0801" gradientTransform="matrix(411.2253 0 0 -411.2253 8868.8799 196331.3594)">
		<stop  offset="0" style="stop-color:#0079C1"/>
		<stop  offset="0.0204" style="stop-color:#0079C1"/>
		<stop  offset="0.1754" style="stop-color:#0070B1"/>
		<stop  offset="0.4293" style="stop-color:#005E94"/>
		<stop  offset="0.7485" style="stop-color:#00426B"/>
		<stop  offset="1" style="stop-color:#15284B"/>
	</linearGradient>
	<rect x="233.128" y="109.921" clip-path="url(#SVGID_4_)" fill="url(#SVGID_5_)" width="411.226" height="68.024"/>
</g>
<g>
	<defs>
		<path id="SVGID_6_" d="M638.393,125.126c-24.982,1.602-49.128,5.015-70.988,10.922c-34.217,9.258-67.288,19.532-101.024,29.221
			c-16.711,4.805-33.621,9.458-50.854,13.78c-6.449,1.627-14.063,2.119-21.16,3.136c28.625,0.539,57.16-0.258,85.684-1.055
			c39.143-1.092,78.261-2.186,117.559,0.171c-10.188-3.503-19.245-7.314-23.78-13.079c-7.478-9.502-0.098-21.078,18.706-29.194
			c17.258-7.449,37.055-12.262,60.435-13.244c0-0.322-0.023-0.657-0.026-0.983C648.097,124.892,643.193,124.818,638.393,125.126"/>
	</defs>
	<clipPath id="SVGID_7_">
		<use xlink:href="#SVGID_6_"  overflow="visible"/>
	</clipPath>
	
		<linearGradient id="SVGID_8_" gradientUnits="userSpaceOnUse" x1="-20.9995" y1="477.1113" x2="-19.9995" y2="477.1113" gradientTransform="matrix(258.6032 0 0 -258.6032 5825.022 123536.0703)">
		<stop  offset="0" style="stop-color:#0079C1"/>
		<stop  offset="0.0204" style="stop-color:#0079C1"/>
		<stop  offset="0.1754" style="stop-color:#0070B1"/>
		<stop  offset="0.4293" style="stop-color:#005E94"/>
		<stop  offset="0.7485" style="stop-color:#00426B"/>
		<stop  offset="1" style="stop-color:#15284B"/>
	</linearGradient>
	<rect x="394.366" y="124.8" clip-path="url(#SVGID_7_)" fill="url(#SVGID_8_)" width="258.603" height="57.924"/>
</g>
<g>
	<defs>
		<path id="SVGID_9_" d="M612.487,120.508c-39.164,1.998-74.761,9.392-108.615,18.664c-27.95,7.655-54.865,16.202-82.521,24.121
			c-31.023,8.89-64.031,15.221-100.22,16.94c-9.057,0.421-18.199,0.536-27.308,0.807c-0.037,0.341-0.077,0.688-0.105,1.026
			c5.565,0.345,11.12,0.865,16.714,0.996c43.084,1.059,83.424-3.71,120.56-14.25c23.916-6.786,47.156-14.154,70.526-21.378
			c36.832-11.4,75.411-20.801,118.643-24.898c9.248-0.875,18.78-1.127,28.165-1.663c-0.018-0.122-0.053-0.257-0.085-0.367
			c-7.858-0.016-15.77-0.269-23.625-0.269C620.553,120.237,616.504,120.305,612.487,120.508"/>
	</defs>
	<clipPath id="SVGID_10_">
		<use xlink:href="#SVGID_9_"  overflow="visible"/>
	</clipPath>
	
		<linearGradient id="SVGID_11_" gradientUnits="userSpaceOnUse" x1="-20.9995" y1="477.0879" x2="-19.9995" y2="477.0879" gradientTransform="matrix(354.6071 0 0 -354.6071 7740.4272 169330.7813)">
		<stop  offset="0" style="stop-color:#0079C1"/>
		<stop  offset="0.0204" style="stop-color:#0079C1"/>
		<stop  offset="0.1754" style="stop-color:#0070B1"/>
		<stop  offset="0.4293" style="stop-color:#005E94"/>
		<stop  offset="0.7485" style="stop-color:#00426B"/>
		<stop  offset="1" style="stop-color:#15284B"/>
	</linearGradient>
	<rect x="293.718" y="120.237" clip-path="url(#SVGID_10_)" fill="url(#SVGID_11_)" width="354.608" height="63.884"/>
</g>
<g>
	<defs>
		<path id="SVGID_12_" d="M415.26,135.257c-2.996,0.647-5.993,1.299-8.982,1.962c-40.615,8.937-82.015,16.763-126.903,18.572
			c-26.535,1.066-53.133,1.038-67.081-15.065c-1.117,13.654,15.977,23.744,40.612,25.49c16.756,1.19,32.828-0.391,48.616-2.679
			c40.871-5.894,77.626-15.95,113.321-27.03c0.718-0.227,1.151-0.656,1.982-1.164c-0.823-0.05-1.192-0.098-1.409-0.098
			C415.353,135.245,415.304,135.248,415.26,135.257"/>
	</defs>
	<clipPath id="SVGID_13_">
		<use xlink:href="#SVGID_12_"  overflow="visible"/>
	</clipPath>
	
		<linearGradient id="SVGID_14_" gradientUnits="userSpaceOnUse" x1="-21" y1="477.0762" x2="-20" y2="477.0762" gradientTransform="matrix(204.5825 0 0 -204.5825 4508.5205 97752.5313)">
		<stop  offset="0" style="stop-color:#0079C1"/>
		<stop  offset="0.0204" style="stop-color:#0079C1"/>
		<stop  offset="0.1754" style="stop-color:#0070B1"/>
		<stop  offset="0.4293" style="stop-color:#005E94"/>
		<stop  offset="0.7485" style="stop-color:#00426B"/>
		<stop  offset="1" style="stop-color:#15284B"/>
	</linearGradient>
	<rect x="211.176" y="135.245" clip-path="url(#SVGID_13_)" fill="url(#SVGID_14_)" width="205.648" height="32.161"/>
</g>
<g>
	<defs>
		<rect id="SVGID_15_" x="-21" y="-243" width="720" height="720"/>
	</defs>
	<clipPath id="SVGID_16_">
		<use xlink:href="#SVGID_15_"  overflow="visible"/>
	</clipPath>
	<path clip-path="url(#SVGID_16_)" fill="#15284B" d="M55.271,48.12l0.014-5.317c0.002-0.96-0.206-1.615-0.627-1.963
		c-0.42-0.348-1.265-0.571-2.538-0.671c-0.62-0.06-0.937-0.262-0.953-0.602c-0.014-0.293,0.257-0.439,0.815-0.437l0.955,0.026
		l1.794,0.028c2.454,0.006,3.879-0.006,4.279-0.034c1.099-0.076,1.738-0.114,1.914-0.112c0.366,0,0.548,0.146,0.548,0.439
		c0,0.262-0.24,0.454-0.716,0.574c-1.212,0.284-1.818,1.149-1.822,2.602l0.022,0.757l-0.022,7.576l0.046,0.757l-0.144,0.356
		c-0.094,0.078-0.326,0.141-0.691,0.187c-0.43,0.062-1.09,0.342-1.981,0.844l-1.578,0.919c-3.106,1.772-6.439,2.652-10,2.642
		c-4.77-0.014-8.676-1.541-11.722-4.582c-3.043-3.04-4.56-6.924-4.546-11.65c0.014-4.962,1.643-9.091,4.888-12.392
		c3.245-3.299,7.3-4.942,12.164-4.928c1.878,0.006,3.868,0.278,5.974,0.818c2.105,0.543,3.783,1.217,5.038,2.024
		c0.19,0.128,0.324,0.19,0.404,0.19c0.11,0,0.262-0.062,0.455-0.188l0.572-0.424c0.112-0.094,0.224-0.14,0.334-0.14
		c0.287,0,0.429,0.37,0.427,1.111c0,0.346,0.044,0.882,0.14,1.609l0.232,2.222c0.076,0.598,0.186,1.197,0.328,1.795
		c0.078,0.283,0.116,0.513,0.116,0.685c0,0.378-0.16,0.574-0.478,0.59c-0.206,0.016-0.382-0.12-0.522-0.402
		c-1.238-2.518-3.139-4.564-5.713-6.143c-2.574-1.577-5.301-2.37-8.181-2.378c-3.597-0.01-6.536,1.333-8.82,4.033
		c-2.284,2.701-3.431,6.188-3.443,10.465c-0.012,4.594,1.283,8.439,3.891,11.536c2.607,3.099,5.843,4.652,9.707,4.664
		c3.687,0.01,6.578-1.273,8.667-3.851C55.008,50.726,55.267,49.646,55.271,48.12"/>
	<path clip-path="url(#SVGID_16_)" fill="#15284B" d="M74.477,37.23c-1.984-0.004-3.585,0.718-4.803,2.174
		c-1.221,1.453-1.833,3.361-1.837,5.725c-0.01,3.008,0.74,5.526,2.252,7.554c1.509,2.03,3.393,3.047,5.645,3.053
		c1.967,0.006,3.521-0.707,4.662-2.136c1.137-1.431,1.711-3.375,1.717-5.833c0.008-3.103-0.697-5.633-2.122-7.591
		C78.57,38.22,76.731,37.238,74.477,37.23 M75.087,36.288c2.86,0.008,5.317,1.011,7.36,3.007c2.044,1.995,3.065,4.371,3.057,7.124
		c-0.008,2.99-1.025,5.456-3.049,7.402c-2.025,1.948-4.579,2.914-7.664,2.906c-3.021-0.008-5.503-0.964-7.446-2.864
		c-1.942-1.902-2.909-4.332-2.899-7.288c0.008-2.865,1.047-5.297,3.119-7.298C69.638,37.276,72.145,36.279,75.087,36.288"/>
	<path clip-path="url(#SVGID_16_)" fill="#15284B" d="M97.114,52.702l4.047-8.379c0.821-1.732,1.234-3.209,1.237-4.438
		c0.002-1.087-0.76-1.759-2.285-2.016c-0.429-0.062-0.643-0.216-0.643-0.462c0.002-0.322,0.206-0.484,0.619-0.482
		c0.208,0,0.5,0.026,0.88,0.074c0.333,0.034,0.911,0.048,1.736,0.05c1.631,0.006,2.718-0.016,3.257-0.06
		c0.444-0.03,0.738-0.047,0.88-0.047c0.381,0.003,0.561,0.135,0.547,0.397c-0.018,0.2-0.353,0.42-1.003,0.666
		c-0.655,0.253-1.269,0.975-1.844,2.172l-7.82,16.064c-0.192,0.394-0.455,0.595-0.789,0.592c-0.396,0-0.689-0.224-0.881-0.668
		L88.18,40.58c-0.632-1.422-1.495-2.338-2.592-2.751c-0.332-0.124-0.5-0.286-0.5-0.486c0.002-0.322,0.24-0.485,0.716-0.482
		c0.128,0,0.309,0.015,0.547,0.05c0.776,0.096,2.22,0.148,4.329,0.154c0.967,0.002,1.642-0.012,2.022-0.042
		c0.525-0.047,0.881-0.068,1.071-0.068c0.365-0.014,0.547,0.148,0.547,0.486c0,0.242-0.224,0.388-0.671,0.434
		c-1.447,0.184-2.172,0.639-2.174,1.362c-0.002,0.392,0.142,0.918,0.427,1.579L97.114,52.702z"/>
	<path clip-path="url(#SVGID_16_)" fill="#15284B" d="M110.293,43.167l8.085,0.022c1.255,0.004,1.884-0.246,1.888-0.751
		c0.002-1.229-0.533-2.372-1.602-3.431c-1.071-1.059-2.234-1.589-3.491-1.591c-1.303-0.004-2.39,0.506-3.258,1.537
		C111.046,39.982,110.505,41.388,110.293,43.167 M110.147,44.466l-0.026,0.521c-0.008,2.694,0.741,4.96,2.238,6.799
		c1.501,1.84,3.351,2.763,5.549,2.769c1.733,0.004,3.623-0.763,5.666-2.302c0.129-0.092,0.247-0.149,0.359-0.165
		c0.224-0.014,0.336,0.111,0.334,0.377c-0.002,0.47-0.558,1.137-1.675,1.996c-2.07,1.593-4.26,2.386-6.566,2.38
		c-2.59-0.009-4.764-0.989-6.514-2.945c-1.751-1.956-2.622-4.374-2.614-7.254c0.006-2.738,0.919-5.129,2.739-7.178
		c1.817-2.048,3.943-3.071,6.375-3.063c2.656,0.008,4.774,1.107,6.36,3.303c0.38,0.534,0.766,1.261,1.16,2.176
		c0.397,0.915,0.593,1.553,0.593,1.915c-0.004,0.521-0.521,0.779-1.555,0.777l-1.768-0.028l-1.625-0.054L110.147,44.466z"/>
	<path clip-path="url(#SVGID_16_)" fill="#15284B" d="M133.397,40.75c1.854-2.862,3.559-4.29,5.116-4.286
		c0.493,0.002,1.141,0.297,1.942,0.881c0.801,0.585,1.217,1.057,1.249,1.419c0.014,0.235-0.24,0.667-0.764,1.297
		c-0.525,0.631-0.899,0.951-1.121,0.967c-0.111,0-0.461-0.19-1.045-0.57c-0.681-0.475-1.33-0.711-1.948-0.713
		c-0.967-0.004-1.776,0.34-2.428,1.033c-0.653,0.693-0.981,1.557-0.983,2.596l-0.022,8.419c-0.004,1.321,0.172,2.26,0.529,2.821
		c0.356,0.558,0.976,0.878,1.869,0.958l1.239,0.098c0.509,0.034,0.763,0.193,0.763,0.475c0,0.316-0.224,0.472-0.673,0.47
		c-0.112,0-0.484-0.04-1.121-0.12c-0.304-0.034-0.748-0.048-1.339-0.05l-1.721-0.03l-1.051-0.002
		c-1.245-0.004-2.13,0.032-2.655,0.11c-0.416,0.063-0.702,0.1-0.86,0.116c-0.433,0.014-0.645-0.14-0.645-0.464
		c0-0.26,0.248-0.439,0.741-0.529c0.682-0.154,1.125-0.444,1.325-0.87c0.2-0.425,0.302-1.331,0.306-2.717l0.028-10.136
		c0.006-1.812-0.866-2.72-2.616-2.724l-0.809,0.022c-0.368-0.002-0.55-0.164-0.548-0.487c0-0.194,0.12-0.34,0.358-0.436
		c0.142-0.03,0.318-0.054,0.525-0.07c1.495-0.138,3.26-0.825,5.3-2.066c0.206-0.108,0.39-0.17,0.551-0.186
		c0.364-0.014,0.546,0.254,0.544,0.805l-0.024,0.45L133.397,40.75z"/>
	<path clip-path="url(#SVGID_16_)" fill="#15284B" d="M149.843,40.253c2.138-2.498,4.352-3.745,6.642-3.739
		c2.542,0.006,4.552,1.045,6.025,3.114c1.013,1.426,1.517,3.586,1.509,6.488l-0.016,5.655l-0.026,0.708l0.068,1.135
		c0.172,1.045,0.839,1.654,2,1.83l1.001,0.144c0.428,0.062,0.65,0.216,0.664,0.462c0.016,0.341-0.246,0.507-0.784,0.505
		c-0.177,0-0.485-0.026-0.929-0.082c-0.523-0.074-1.49-0.112-2.903-0.116l-2.354,0.064l-0.905-0.002l-0.688,0.046l-0.332-0.074
		c-0.113-0.066-0.167-0.186-0.167-0.365c0.002-0.242,0.144-0.396,0.431-0.46l0.716-0.186c0.637-0.156,0.957-0.721,0.959-1.697
		l0.022-8.139c0.006-2.188-0.5-3.878-1.517-5.067c-1.015-1.191-2.462-1.789-4.344-1.793c-1.321-0.004-2.498,0.378-3.527,1.147
		c-1.031,0.768-1.549,1.651-1.549,2.644l-0.026,9.018l0.022,0.71l0.02,1.183c0.076,1.327,1.179,2.054,3.309,2.186
		c0.524,0.052,0.786,0.22,0.786,0.511c0,0.292-0.184,0.436-0.548,0.436c-0.272-0.002-0.677-0.046-1.217-0.138
		c-0.304-0.036-1.049-0.056-2.242-0.06c-2.528-0.008-4.039,0.024-4.532,0.096c-0.492,0.052-0.811,0.078-0.953,0.076
		c-0.304,0-0.446-0.128-0.428-0.388c0.014-0.194,0.168-0.349,0.452-0.463c0.813-0.28,1.357-0.624,1.638-1.031
		c0.28-0.41,0.42-1.071,0.422-1.981l0.03-10.666c0.004-1.117-0.13-1.877-0.4-2.277c-0.268-0.403-0.777-0.605-1.524-0.607
		l-1.026,0.02c-0.143,0-0.269-0.032-0.381-0.096c-0.144-0.068-0.214-0.18-0.214-0.342c0.002-0.227,0.208-0.379,0.623-0.459
		c1.065-0.186,2.092-0.506,3.078-0.961l1.265-0.61c0.495-0.234,0.805-0.384,0.933-0.448c0.222-0.123,0.412-0.187,0.573-0.187
		c0.286,0.002,0.412,0.231,0.38,0.687c-0.018,0.252-0.028,0.552-0.028,0.899L149.843,40.253z"/>
	<path clip-path="url(#SVGID_16_)" fill="#15284B" d="M179.736,37.523c-1.983-0.006-3.585,0.718-4.804,2.172
		c-1.217,1.455-1.829,3.363-1.837,5.727c-0.008,3.008,0.742,5.526,2.254,7.554c1.509,2.03,3.391,3.047,5.644,3.053
		c1.97,0.006,3.523-0.707,4.66-2.138c1.141-1.429,1.714-3.373,1.72-5.831c0.01-3.103-0.699-5.633-2.12-7.591
		C183.828,38.512,181.99,37.529,179.736,37.523 M180.345,36.58c2.862,0.008,5.316,1.009,7.362,3.007
		c2.046,1.995,3.065,4.369,3.057,7.122c-0.008,2.99-1.025,5.458-3.049,7.404c-2.026,1.946-4.58,2.914-7.662,2.906
		c-3.023-0.01-5.505-0.964-7.447-2.866c-1.941-1.9-2.91-4.332-2.902-7.288c0.008-2.865,1.049-5.295,3.123-7.298
		C174.898,37.567,177.404,36.572,180.345,36.58"/>
	<path clip-path="url(#SVGID_16_)" fill="#15284B" d="M200.378,40.936c1.854-2.862,3.559-4.29,5.116-4.286
		c0.493,0,1.141,0.295,1.942,0.879c0.801,0.585,1.217,1.059,1.249,1.421c0.014,0.235-0.24,0.667-0.765,1.298
		c-0.524,0.628-0.898,0.95-1.121,0.966c-0.11-0.002-0.46-0.19-1.044-0.57c-0.681-0.475-1.33-0.713-1.948-0.715
		c-0.967-0.002-1.775,0.342-2.428,1.035s-0.981,1.557-0.983,2.596l-0.022,8.419c-0.004,1.322,0.172,2.26,0.528,2.819
		c0.357,0.56,0.977,0.881,1.87,0.961l1.239,0.098c0.508,0.032,0.763,0.192,0.763,0.474c0,0.316-0.224,0.471-0.673,0.471
		c-0.112,0-0.484-0.04-1.121-0.122c-0.304-0.033-0.748-0.049-1.339-0.051l-1.721-0.028l-1.051-0.002
		c-1.245-0.004-2.13,0.032-2.655,0.11c-0.416,0.061-0.702,0.101-0.86,0.117c-0.433,0.014-0.645-0.141-0.645-0.465
		c0-0.26,0.248-0.438,0.741-0.528c0.682-0.154,1.125-0.447,1.325-0.871s0.302-1.331,0.306-2.716l0.028-10.137
		c0.006-1.812-0.867-2.72-2.616-2.726l-0.809,0.022c-0.368,0-0.55-0.162-0.548-0.485c0-0.194,0.12-0.34,0.358-0.436
		c0.142-0.032,0.318-0.054,0.525-0.07c1.495-0.138,3.26-0.827,5.3-2.066c0.206-0.11,0.391-0.17,0.551-0.186
		c0.364-0.016,0.546,0.254,0.544,0.805l-0.024,0.45L200.378,40.936z"/>
	<path clip-path="url(#SVGID_16_)" fill="#15284B" d="M217.265,36.682c1.257,0.004,2.338,0.168,3.243,0.496l1.049,0.355
		c0.428,0.156,0.642,0.396,0.64,0.722v0.379c0,0.22,0.016,0.44,0.046,0.66l0.094,0.923c0.046,0.33,0.068,0.631,0.068,0.897
		c-0.002,0.614-0.182,0.931-0.54,0.945c-0.196,0.016-0.372-0.191-0.535-0.615c-0.866-2.398-2.502-3.601-4.902-3.607
		c-0.952-0.002-1.737,0.264-2.35,0.801c-0.616,0.536-0.925,1.213-0.925,2.035c-0.004,0.869,0.325,1.574,0.983,2.114
		c0.659,0.541,1.988,1.197,3.99,1.978c1.985,0.776,3.363,1.595,4.131,2.454c0.769,0.859,1.151,2.012,1.145,3.459
		c-0.004,1.775-0.672,3.295-2.002,4.556c-1.333,1.263-2.918,1.891-4.763,1.885c-1.32-0.004-2.751-0.378-4.288-1.123
		c-0.369-0.172-0.597-0.262-0.693-0.262l-0.62-0.072c-0.365-0.032-0.565-0.228-0.595-0.589l-0.02-1.012l-0.064-3.015l0.05-0.702
		c0.068-0.425,0.246-0.645,0.539-0.661c0.292-0.012,0.486,0.224,0.582,0.71c0.328,1.736,0.973,3.091,1.934,4.072
		c0.956,0.979,2.114,1.471,3.465,1.475c1.159,0.002,2.111-0.334,2.852-1.011c0.741-0.678,1.113-1.547,1.117-2.606
		c0.004-1.611-0.891-2.814-2.686-3.609l-2.096-0.931c-1.906-0.82-3.255-1.669-4.045-2.544c-0.795-0.875-1.189-1.941-1.185-3.198
		c0.003-1.51,0.62-2.781,1.845-3.816C213.958,37.19,215.468,36.676,217.265,36.682"/>
	<path clip-path="url(#SVGID_16_)" fill="#15284B" d="M230.34,21.571c0.733,0.002,1.439,0.553,2.12,1.649
		c0.68,1.097,1.019,2.226,1.015,3.393c-0.004,1.906-0.717,3.723-2.138,5.451c-1.181,1.449-2.16,2.168-2.939,2.166
		c-0.286,0-0.428-0.128-0.428-0.387c0-0.178,0.136-0.356,0.408-0.534c0.573-0.358,1.093-0.959,1.566-1.798
		c0.472-0.84,0.708-1.575,0.71-2.205c0.006-1.776-0.842-3.139-2.54-4.086c-0.444-0.252-0.666-0.512-0.666-0.781
		c0.002-0.25,0.146-0.51,0.432-0.774l1.027-0.919l0.884-1.011C229.92,21.625,230.104,21.571,230.34,21.571"/>
	<path clip-path="url(#SVGID_16_)" fill="#15284B" d="M45.696,66.187c2.656,0.006,4.9,0.394,6.736,1.163l2.566,1.077
		c0.222,0.098,0.444,0.148,0.668,0.148c0.297,0.002,0.597-0.122,0.895-0.366l0.523-0.443c0.074-0.096,0.21-0.144,0.408-0.144
		c0.621-0.022,0.931,0.579,0.927,1.81c-0.002,0.418,0.158,1.661,0.474,3.727l0.585,3.799c0.12,0.813,0.182,1.317,0.18,1.514
		c0,0.762-0.268,1.142-0.797,1.14c-0.406-0.001-0.808-0.594-1.209-1.779c-0.885-2.668-2.69-4.866-5.421-6.602
		c-2.728-1.735-5.776-2.606-9.139-2.616c-2.673-0.008-4.909,0.767-6.706,2.326c-1.798,1.557-2.698,3.505-2.706,5.843
		c-0.004,2.068,0.572,3.855,1.733,5.361c1.011,1.283,2.118,2.22,3.319,2.814c1.199,0.595,4.152,1.673,8.858,3.237
		c9.161,2.998,13.733,7.889,13.713,14.67c-0.012,4.594-1.709,8.35-5.092,11.264c-3.385,2.916-7.719,4.366-13.005,4.351
		c-1.912-0.005-4.014-0.281-6.308-0.827c-2.294-0.546-3.975-1.181-5.04-1.896c-0.444-0.296-0.74-0.61-0.889-0.944
		c-0.148-0.333-0.37-1.185-0.664-2.563c-0.048-0.2-0.357-1.317-0.921-3.36c-0.64-2.216-0.957-3.79-0.955-4.725
		c0.002-0.736,0.256-1.092,0.763-1.066c0.454,0.026,0.857,0.63,1.209,1.815c0.881,3.061,2.754,5.629,5.621,7.709
		c2.866,2.08,5.981,3.126,9.346,3.134c3.417,0.01,6.307-0.978,8.677-2.966c2.37-1.986,3.559-4.408,3.567-7.264
		c0.006-2.731-1.077-5.035-3.255-6.91c-1.113-0.965-4.331-2.338-9.652-4.128c-5.497-1.855-9.39-3.907-11.678-6.149
		c-2.284-2.242-3.423-5.146-3.411-8.709c0.01-3.98,1.513-7.217,4.512-9.715C37.125,67.418,40.982,66.173,45.696,66.187"/>
	<path clip-path="url(#SVGID_16_)" fill="#15284B" d="M82.806,88.162c-3.094-0.008-5.597,1.121-7.496,3.391
		c-1.904,2.27-2.859,5.249-2.869,8.936c-0.012,4.698,1.159,8.627,3.515,11.794c2.358,3.166,5.297,4.754,8.816,4.764
		c3.071,0.008,5.497-1.103,7.274-3.337c1.778-2.232,2.67-5.264,2.682-9.102c0.012-4.842-1.091-8.793-3.311-11.848
		C89.196,89.706,86.325,88.172,82.806,88.162 M83.759,86.688c4.468,0.014,8.297,1.577,11.49,4.692
		c3.195,3.117,4.784,6.824,4.772,11.121c-0.012,4.666-1.602,8.52-4.76,11.554c-3.161,3.037-7.148,4.55-11.962,4.536
		c-4.716-0.014-8.59-1.503-11.622-4.472c-3.031-2.966-4.54-6.759-4.528-11.375c0.012-4.47,1.637-8.267,4.872-11.39
		C75.256,88.232,79.167,86.677,83.759,86.688"/>
	<path clip-path="url(#SVGID_16_)" fill="#15284B" d="M130.739,113.191c-2.89,3.681-6.393,5.515-10.513,5.503
		c-3.475-0.01-6.183-1.081-8.125-3.213c-1.943-2.132-2.908-5.102-2.898-8.916l0.046-2.434l0.032-12.208
		c0.004-1.253-0.255-2.128-0.775-2.62c-0.518-0.493-1.487-0.779-2.9-0.857c-0.621-0.048-0.917-0.302-0.891-0.759
		c0.026-0.432,0.792-0.68,2.3-0.749l2.818-0.102c0.619-0.05,1.546-0.218,2.785-0.51c0.346-0.096,0.618-0.146,0.814-0.146
		c0.669,0.002,1.001,0.582,0.997,1.737v0.553l-0.196,16.488l-0.002,1.179l0.583,4.464c0.52,1.575,1.485,2.882,2.898,3.919
		c1.417,1.035,2.959,1.557,4.624,1.561c2.19,0.007,4.136-0.624,5.845-1.895c1.705-1.269,2.562-2.719,2.566-4.352l0.05-17.629
		c0.004-1.401-0.234-2.362-0.718-2.878c-0.481-0.519-1.382-0.779-2.695-0.783c-0.796-0.002-1.193-0.232-1.191-0.689
		c0.002-0.552,0.451-0.838,1.343-0.86l1.229-0.07l2.607-0.105c0.842-0.048,1.809-0.24,2.904-0.582
		c0.346-0.096,0.645-0.158,0.895-0.18c0.52-0.024,0.779,0.42,0.776,1.327l-0.068,23.944c-0.003,1.892,0.199,3.139,0.605,3.74
		c0.408,0.604,1.245,0.906,2.51,0.91l0.597,0.002l0.522-0.034c0.547,0,0.831,0.191,0.855,0.569c0.022,0.53-0.697,0.832-2.162,0.903
		l-2.346,0.139c-1.613,0.069-2.656,0.168-3.129,0.288c-0.594,0.146-1.055,0.218-1.377,0.216c-0.795-0.002-1.187-1.153-1.183-3.458
		L130.739,113.191z"/>
	<path clip-path="url(#SVGID_16_)" fill="#15284B" d="M154.475,91.347l-0.052,18.552c-0.006,2.41,0.336,3.973,1.029,4.69
		c1.017,1.059,2.466,1.591,4.351,1.597c1.514,0.004,2.795-0.262,3.836-0.802l1.939-0.915l0.223-0.074c0.3,0,0.448,0.136,0.448,0.404
		c-0.004,0.805-0.987,1.674-2.951,2.607c-1.961,0.932-3.787,1.396-5.474,1.392c-5.709-0.017-8.554-2.97-8.538-8.863l0.052-18.602
		l-3.314-0.008c-0.645-0.002-0.965-0.19-0.965-0.563c0-0.344,0.324-0.786,0.971-1.327c2.91-2.434,5.138-4.87,6.683-7.306
		c0.673-1.085,1.145-1.627,1.42-1.625c0.346,0,0.52,0.322,0.518,0.96l-0.166,6.38l7.929,0.022c1.092,0.004,1.935-0.19,2.532-0.582
		c0.374-0.271,0.646-0.417,0.823-0.441c0.272-0.048,0.394,0.088,0.368,0.41c0,0.125-0.112,0.435-0.336,0.929l-0.863,2.118
		c-0.274,0.717-0.823,1.075-1.64,1.073L154.475,91.347z"/>
	<path clip-path="url(#SVGID_16_)" fill="#15284B" d="M178.222,92.816c3.207-3.901,6.692-5.847,10.459-5.835
		c3.493,0.008,6.321,1.209,8.481,3.599c2.162,2.392,3.237,5.519,3.225,9.378l-0.032,11.692c-0.004,1.87,0.302,3.149,0.921,3.837
		c0.618,0.693,1.933,1.199,3.943,1.526c0.669,0.101,1.003,0.37,1.001,0.813c0,0.442-0.337,0.665-1.005,0.663
		c-0.3-0.003-0.909-0.04-1.826-0.116c-1.835-0.128-3.411-0.194-4.726-0.196c-2.183-0.006-3.797,0.052-4.84,0.182
		c-0.596,0.064-0.981,0.095-1.155,0.095c-0.668-0.002-1.017-0.229-1.041-0.684c-0.024-0.304,0.225-0.556,0.749-0.756
		c1.265-0.461,2.05-0.881,2.348-1.261c0.298-0.377,0.451-1.117,0.454-2.22l0.04-1.139l0.032-12.231
		c0.008-3.11-0.788-5.578-2.394-7.41c-1.605-1.828-3.755-2.746-6.453-2.754c-2.082-0.004-3.966,0.634-5.653,1.917
		c-1.687,1.283-2.534,2.727-2.538,4.33l-0.04,14.3c-0.006,2.512,0.274,4.14,0.843,4.878c0.568,0.741,1.957,1.263,4.165,1.564
		c0.845,0.122,1.265,0.424,1.265,0.904c-0.004,0.409-0.276,0.611-0.825,0.611c-0.272-0.002-0.956-0.061-2.051-0.17
		c-0.895-0.09-2.785-0.141-5.671-0.148c-0.997-0.002-2.426,0.061-4.292,0.187c-0.823,0.062-1.393,0.094-1.717,0.094
		c-0.597-0.002-0.909-0.196-0.933-0.581c-0.022-0.43,0.264-0.728,0.861-0.894c1.465-0.439,2.366-0.941,2.702-1.506
		c0.336-0.562,0.508-1.901,0.512-4.015l0.109-38.403c0.008-3.022-0.821-4.486-2.483-4.392l-1.897,0.104
		c-0.2,0-0.372-0.038-0.522-0.114c-0.175-0.102-0.259-0.266-0.259-0.492c0-0.355,0.288-0.607,0.861-0.757
		c1.569-0.366,3.315-0.998,5.236-1.903l2.919-1.357c0.298-0.147,0.56-0.221,0.784-0.221c0.423,0.002,0.633,0.275,0.633,0.815
		c0,0.146-0.028,0.442-0.076,0.885c-0.028,0.418-0.04,1.045-0.044,1.881L178.222,92.816z"/>
	<path clip-path="url(#SVGID_16_)" fill="#15284B" d="M257.327,92.924l-5.805-14.621l-0.296-0.776
		c-0.296-0.787-0.616-1.195-0.963-1.219c-0.174-0.024-0.374,0.206-0.598,0.698l-7.303,15.95c-0.326,0.686-0.488,1.141-0.488,1.363
		c-0.002,0.639,0.569,0.961,1.71,0.965l1.004,0.038l11.242,0.032c1.241,0.002,1.862-0.302,1.866-0.917
		c0-0.172-0.064-0.454-0.185-0.849L257.327,92.924z M256.863,98.861l-13.476-0.038c-1.837-0.004-2.978,0.14-3.427,0.434
		c-0.446,0.294-1.044,1.277-1.793,2.951l-2.458,5.426c-1.109,2.487-1.665,4.332-1.668,5.539c-0.002,1.157,0.287,1.998,0.867,2.518
		c0.583,0.519,1.73,0.965,3.439,1.337c0.745,0.146,1.129,0.437,1.153,0.869c0.024,0.406-0.324,0.61-1.041,0.608
		c-0.272-0.002-0.694-0.016-1.263-0.046l-3.565-0.217c-1.187-0.06-2.562-0.092-4.119-0.096c-0.719-0.002-1.277,0.014-1.672,0.048
		c-1.263,0.135-1.956,0.201-2.08,0.201c-0.668-0.002-1.003-0.229-1-0.684c0-0.403,0.212-0.669,0.636-0.793l1.377-0.404
		c0.497-0.144,1.169-0.739,2.014-1.784c0.849-1.042,1.545-2.129,2.094-3.26l1.087-2.432l19.25-42.062
		c0.324-0.735,0.687-1.105,1.085-1.103c0.396,0,0.729,0.36,1.001,1.073l15.893,40.674l0.813,1.996
		c1.159,2.985,2.122,4.84,2.891,5.569c0.764,0.726,2.33,1.305,4.683,1.731c0.769,0.146,1.142,0.445,1.114,0.901
		c-0.024,0.408-0.373,0.612-1.043,0.61c-0.223,0-0.695-0.025-1.413-0.077c-1.292-0.127-3.587-0.195-6.888-0.205
		c-3.449-0.009-5.609,0.06-6.478,0.205c-0.52,0.096-0.907,0.144-1.153,0.144c-0.646-0.002-0.969-0.257-0.965-0.759
		c0-0.384,0.31-0.635,0.933-0.753l1.153-0.256c1.241-0.242,1.864-1.079,1.868-2.508c0.004-1.305-0.747-3.907-2.248-7.805
		l-1.848-4.884c-0.518-1.357-0.927-2.138-1.223-2.348C259.097,98.971,258.252,98.865,256.863,98.861"/>
	<path clip-path="url(#SVGID_16_)" fill="#15284B" d="M288.113,91.717l-0.052,18.552c-0.006,2.41,0.336,3.973,1.029,4.69
		c1.017,1.059,2.466,1.591,4.352,1.597c1.513,0.004,2.794-0.262,3.839-0.802l1.937-0.915l0.223-0.074
		c0.298,0,0.446,0.136,0.446,0.404c-0.004,0.805-0.987,1.673-2.949,2.608c-1.963,0.931-3.789,1.395-5.476,1.391
		c-5.707-0.016-8.554-2.97-8.538-8.863l0.053-18.602l-3.313-0.008c-0.647-0.002-0.967-0.19-0.967-0.563
		c0-0.344,0.324-0.786,0.973-1.327c2.91-2.434,5.136-4.87,6.683-7.306c0.675-1.085,1.145-1.627,1.419-1.625
		c0.347,0,0.521,0.32,0.517,0.959l-0.166,6.381l7.931,0.022c1.091,0.004,1.935-0.19,2.532-0.582
		c0.372-0.271,0.644-0.417,0.821-0.441c0.272-0.048,0.396,0.088,0.368,0.41c0,0.125-0.11,0.435-0.336,0.929l-0.861,2.118
		c-0.276,0.717-0.823,1.075-1.642,1.071L288.113,91.717z"/>
	<path clip-path="url(#SVGID_16_)" fill="#15284B" d="M311.934,66.483l-0.12,43.295c-0.006,2.018,0.226,3.567,0.696,4.652
		c0.541,1.233,2.078,2.06,4.608,2.484c0.695,0.122,1.053,0.378,1.077,0.762c0.024,0.554-0.238,0.829-0.784,0.828
		c-0.224,0-0.549-0.053-0.971-0.15c-0.375-0.076-0.931-0.114-1.68-0.116l-3.246,0.028l-1.94-0.006
		c-2.364-0.007-3.819,0.025-4.366,0.098c-0.797,0.122-1.269,0.181-1.419,0.181c-0.647-0.003-0.983-0.243-1.005-0.723
		c-0.026-0.408,0.324-0.709,1.045-0.899c1.119-0.316,1.868-0.738,2.256-1.267c0.384-0.527,0.58-1.381,0.584-2.562l0.113-40.903
		c0.008-2.262-0.785-3.395-2.372-3.399l-1.862,0.068c-0.248,0-0.461-0.026-0.633-0.078c-0.298-0.124-0.446-0.326-0.444-0.605
		c0-0.352,0.322-0.618,0.973-0.792c0.847-0.194,1.619-0.427,2.318-0.695l2.28-0.917c1.745-0.68,2.956-1.269,3.631-1.759
		c0.298-0.194,0.548-0.294,0.746-0.294c0.375-0.022,0.559,0.52,0.555,1.627L311.934,66.483z"/>
	<path clip-path="url(#SVGID_16_)" fill="#15284B" d="M339.193,103.589c-3.852,0.332-6.827,1.185-8.923,2.562
		c-2.102,1.376-3.155,3.139-3.163,5.291c-0.004,1.687,0.492,3.027,1.489,4.019c0.997,0.995,2.346,1.494,4.048,1.498
		c2.073,0.006,3.811-0.661,5.22-2.002c0.869-0.853,1.301-2.208,1.309-4.066L339.193,103.589z M339.197,102.114l0.012-4.548
		c0.008-2.81-0.52-4.756-1.585-5.833c-1.433-1.471-3.367-2.21-5.801-2.216c-3.275-0.01-4.916,1.351-4.924,4.082
		c-0.004,0.804,0.156,1.731,0.476,2.782c0.148,0.438,0.232,0.829,0.256,1.169c0.024,0.44-0.224,0.659-0.74,0.657
		c-1.157-0.004-2.21-0.253-3.159-0.745c-0.949-0.497-1.421-1.037-1.417-1.627c0.004-1.52,0.836-3.157,2.506-4.916
		c2.242-2.369,5.208-3.548,8.908-3.538c3.374,0.011,5.993,0.761,7.846,2.25c1.857,1.492,2.782,3.587,2.774,6.29l-0.04,14.44
		c-0.004,2.284,0.269,3.909,0.824,4.882c0.557,0.973,1.49,1.459,2.807,1.463c0.372,0.002,0.669-0.02,0.893-0.062
		c0.449-0.102,0.745-0.156,0.893-0.154c0.424-0.024,0.621,0.148,0.598,0.517c-0.028,0.442-0.613,0.892-1.759,1.343
		c-1.148,0.45-2.27,0.676-3.362,0.672c-2.041-0.004-3.879-1.265-5.517-3.777c-3.599,2.696-6.938,4.039-10.009,4.03
		c-2.326-0.006-4.176-0.633-5.549-1.878c-1.369-1.247-2.053-2.915-2.046-5.004c0.008-2.829,1.314-5.019,3.916-6.572
		C328.604,104.266,333.004,103.031,339.197,102.114"/>
	<path clip-path="url(#SVGID_16_)" fill="#15284B" d="M364.202,93.332c3.335-3.903,6.79-5.847,10.365-5.837
		c3.967,0.01,7.103,1.631,9.404,4.864c1.581,2.22,2.366,5.595,2.354,10.123l-0.023,8.827l-0.044,1.107l0.107,1.774
		c0.269,1.625,1.31,2.576,3.118,2.852l1.563,0.227c0.673,0.099,1.021,0.339,1.041,0.723c0.023,0.529-0.385,0.791-1.226,0.789
		c-0.272-0.002-0.757-0.046-1.45-0.13c-0.812-0.116-2.324-0.176-4.526-0.184l-3.676,0.102l-1.409-0.004l-1.081,0.072l-0.517-0.116
		c-0.172-0.102-0.26-0.291-0.26-0.567c0-0.38,0.224-0.619,0.672-0.719l1.117-0.292c0.993-0.244,1.493-1.125,1.497-2.648
		l0.036-12.707c0.009-3.413-0.78-6.049-2.365-7.907c-1.586-1.857-3.848-2.79-6.782-2.8c-2.065-0.004-3.903,0.592-5.509,1.793
		c-1.608,1.201-2.414,2.577-2.418,4.126l-0.04,14.076l0.036,1.109l0.032,1.848c0.116,2.069,1.838,3.206,5.164,3.412
		c0.816,0.079,1.229,0.345,1.226,0.797c0,0.455-0.289,0.682-0.856,0.68c-0.426,0-1.058-0.072-1.898-0.215
		c-0.473-0.059-1.637-0.091-3.499-0.095c-3.947-0.012-6.305,0.038-7.074,0.149c-0.772,0.082-1.265,0.122-1.489,0.122
		c-0.473-0.002-0.692-0.204-0.669-0.609c0.024-0.302,0.261-0.542,0.709-0.718c1.27-0.437,2.118-0.977,2.555-1.612
		c0.437-0.638,0.655-1.671,0.661-3.094L359.095,96c0.004-1.741-0.204-2.926-0.625-3.553c-0.42-0.628-1.213-0.943-2.378-0.947
		l-1.602,0.033c-0.225,0-0.425-0.053-0.597-0.155c-0.224-0.1-0.332-0.276-0.332-0.528c0-0.354,0.324-0.595,0.969-0.719
		c1.661-0.29,3.268-0.788,4.809-1.499l1.973-0.953c0.769-0.366,1.254-0.598,1.454-0.696c0.348-0.197,0.647-0.295,0.896-0.293
		c0.445,0,0.642,0.359,0.589,1.071c-0.023,0.395-0.035,0.861-0.039,1.401L364.202,93.332z"/>
	<path clip-path="url(#SVGID_16_)" fill="#15284B" d="M404.705,92.041l-0.052,18.552c-0.008,2.41,0.336,3.971,1.028,4.688
		c1.018,1.059,2.467,1.591,4.352,1.597c1.514,0.004,2.795-0.262,3.84-0.802l1.938-0.915l0.225-0.074
		c0.296,0.002,0.444,0.136,0.444,0.404c-0.005,0.805-0.985,1.675-2.951,2.608c-1.961,0.931-3.787,1.396-5.477,1.391
		c-5.705-0.016-8.551-2.97-8.534-8.863l0.052-18.602l-3.315-0.008c-0.645-0.002-0.965-0.188-0.965-0.561
		c0-0.344,0.324-0.788,0.973-1.329c2.91-2.434,5.137-4.87,6.682-7.306c0.677-1.085,1.148-1.625,1.422-1.625
		c0.348,0.002,0.52,0.322,0.516,0.961l-0.168,6.381l7.932,0.022c1.093,0.002,1.937-0.192,2.533-0.584
		c0.372-0.269,0.645-0.417,0.821-0.441c0.272-0.046,0.396,0.09,0.368,0.412c0,0.125-0.108,0.435-0.336,0.927l-0.861,2.118
		c-0.275,0.719-0.825,1.075-1.642,1.073L404.705,92.041z"/>
	<path clip-path="url(#SVGID_16_)" fill="#15284B" d="M426.968,72.407c0.602,0.002,1.209,0.498,1.83,1.489l0.893,1.409
		c0.249,0.346,0.372,0.659,0.372,0.929c0.024,0.568-0.4,1.357-1.28,2.368c-0.873,1.011-1.574,1.515-2.099,1.513
		c-0.501-0.002-1.16-0.498-1.981-1.487c-0.817-0.991-1.229-1.772-1.229-2.34c0.004-0.569,0.46-1.357,1.373-2.368
		C425.759,72.911,426.468,72.407,426.968,72.407 M429.182,112.611c-0.004,1.747,0.185,2.919,0.564,3.509
		c0.385,0.593,1.197,0.977,2.438,1.153l1.709,0.188c0.894,0.122,1.329,0.436,1.302,0.94c-0.028,0.406-0.36,0.61-1.01,0.608
		c-0.424,0-1.232-0.061-2.426-0.176c-0.672-0.059-1.541-0.088-2.609-0.092l-2.391-0.049l-2.726,0.141
		c-0.497,0.023-0.881,0.058-1.157,0.107c-0.645,0.073-1.093,0.109-1.341,0.109c-0.673-0.003-1.009-0.231-1.009-0.686
		c0.004-0.378,0.228-0.643,0.672-0.793l0.709-0.22c0.797-0.264,1.349-0.733,1.661-1.393c0.312-0.663,0.473-1.732,0.477-3.205
		l0.044-16.058c0.004-2.037-0.192-3.362-0.585-3.977c-0.396-0.617-1.253-0.925-2.565-0.929c-0.945-0.002-1.405-0.196-1.378-0.582
		c0.024-0.337,0.664-0.695,1.909-1.075c1.398-0.463,3.167-1.247,5.313-2.346l1.985-0.917c0.32,0.024,0.48,0.322,0.48,0.889
		L429.182,112.611z"/>
	<path clip-path="url(#SVGID_16_)" fill="#15284B" d="M455.345,87.719c2.134,0.006,4.039,0.276,5.713,0.817
		c1.673,0.536,2.51,1.145,2.506,1.823l-0.04,1.107l0.256,2.803c-0.004,1.303-0.312,1.979-0.916,2.027
		c-0.281,0.024-0.633-0.342-1.061-1.097c-0.789-1.413-2.118-2.636-3.984-3.675c-1.865-1.039-3.679-1.559-5.437-1.563
		c-2.427-0.008-4.411,1.085-5.953,3.279c-1.541,2.194-2.318,5.02-2.329,8.483c-0.009,4.1,1.164,7.572,3.521,10.415
		c2.358,2.842,5.245,4.268,8.664,4.278c2.75,0.008,5.452-1.103,8.111-3.335c0.328-0.269,0.636-0.415,0.917-0.439
		c0.38-0.048,0.572,0.122,0.568,0.515c0,0.538-0.597,1.331-1.79,2.38c-3.086,2.732-6.789,4.088-11.105,4.077
		c-3.971-0.01-7.286-1.451-9.949-4.317c-2.658-2.869-3.982-6.416-3.971-10.641c0.016-4.715,1.605-8.722,4.78-12.015
		C447.021,89.348,450.853,87.706,455.345,87.719"/>
	<path clip-path="url(#SVGID_16_)" fill="#15284B" d="M45.894,149.784l-3.719-9.368l-0.188-0.497
		c-0.188-0.504-0.397-0.765-0.619-0.78c-0.11-0.016-0.238,0.132-0.382,0.448l-4.68,10.217c-0.208,0.44-0.312,0.732-0.312,0.877
		c0,0.408,0.364,0.612,1.097,0.616l0.644,0.023l7.202,0.021c0.793,0.004,1.194-0.192,1.194-0.588c0-0.109-0.041-0.289-0.119-0.545
		L45.894,149.784z M45.598,153.587l-8.635-0.024c-1.175-0.004-1.906,0.088-2.194,0.28c-0.286,0.188-0.669,0.817-1.149,1.89
		l-1.574,3.476c-0.712,1.593-1.068,2.777-1.068,3.551c-0.005,0.74,0.182,1.277,0.554,1.609c0.372,0.333,1.107,0.62,2.204,0.86
		c0.476,0.092,0.722,0.28,0.737,0.557c0.016,0.261-0.207,0.389-0.665,0.389c-0.176,0-0.444-0.012-0.811-0.032l-2.284-0.136
		c-0.76-0.041-1.641-0.061-2.638-0.061c-0.46-0.004-0.817,0.009-1.071,0.028c-0.811,0.088-1.255,0.128-1.333,0.128
		c-0.428,0-0.642-0.147-0.641-0.437c0-0.261,0.136-0.429,0.407-0.509l0.885-0.256c0.316-0.092,0.746-0.477,1.289-1.145
		c0.542-0.669,0.988-1.365,1.341-2.09l0.696-1.558l12.335-26.946c0.206-0.474,0.438-0.709,0.692-0.705
		c0.255,0,0.469,0.228,0.641,0.688l10.185,26.054l0.52,1.281c0.741,1.91,1.359,3.1,1.85,3.567c0.492,0.464,1.493,0.837,3.002,1.108
		c0.493,0.093,0.729,0.284,0.715,0.576c-0.018,0.262-0.24,0.394-0.67,0.394c-0.141,0-0.445-0.017-0.906-0.052
		c-0.826-0.08-2.297-0.125-4.411-0.129c-2.21-0.008-3.595,0.036-4.152,0.129c-0.332,0.063-0.58,0.092-0.738,0.092
		c-0.415,0-0.619-0.164-0.619-0.485c0-0.248,0.2-0.408,0.597-0.484l0.74-0.163c0.797-0.156,1.193-0.689,1.197-1.606
		c0.002-0.836-0.478-2.502-1.441-5l-1.183-3.126c-0.332-0.869-0.594-1.374-0.783-1.506
		C47.027,153.659,46.487,153.591,45.598,153.587"/>
	<path clip-path="url(#SVGID_16_)" fill="#15284B" d="M66.036,132.805l-0.076,27.736c-0.004,1.293,0.144,2.286,0.444,2.982
		c0.349,0.789,1.331,1.316,2.951,1.59c0.446,0.08,0.676,0.244,0.692,0.487c0.015,0.353-0.152,0.532-0.504,0.528
		c-0.144,0-0.35-0.032-0.621-0.095c-0.24-0.049-0.598-0.073-1.076-0.073l-2.08,0.016l-1.243-0.004
		c-1.514-0.004-2.446,0.021-2.797,0.064c-0.51,0.08-0.814,0.117-0.911,0.117c-0.412-0.005-0.628-0.157-0.642-0.465
		c-0.014-0.261,0.206-0.452,0.669-0.576c0.716-0.201,1.199-0.474,1.447-0.81c0.246-0.34,0.37-0.885,0.372-1.641l0.072-26.207
		c0.004-1.449-0.5-2.174-1.519-2.178l-1.191,0.044c-0.16,0-0.296-0.017-0.406-0.053c-0.191-0.079-0.287-0.207-0.287-0.384
		c0.002-0.228,0.209-0.396,0.625-0.508c0.544-0.125,1.037-0.272,1.485-0.445l1.461-0.588c1.119-0.437,1.894-0.813,2.326-1.129
		c0.192-0.125,0.351-0.188,0.479-0.184c0.238-0.018,0.358,0.328,0.354,1.04L66.036,132.805z"/>
	<path clip-path="url(#SVGID_16_)" fill="#15284B" d="M77.95,132.837l-0.078,27.736c-0.002,1.293,0.144,2.286,0.444,2.981
		c0.349,0.789,1.331,1.317,2.953,1.59c0.444,0.08,0.676,0.244,0.69,0.488c0.014,0.353-0.152,0.532-0.502,0.532
		c-0.144-0.003-0.352-0.036-0.621-0.096c-0.24-0.053-0.6-0.076-1.077-0.076l-2.081,0.016h-1.241
		c-1.514-0.004-2.446,0.017-2.799,0.061c-0.508,0.08-0.812,0.116-0.909,0.116c-0.414,0-0.628-0.156-0.644-0.461
		c-0.014-0.264,0.208-0.456,0.669-0.58c0.716-0.2,1.199-0.473,1.447-0.809c0.246-0.336,0.37-0.885,0.374-1.642l0.072-26.206
		c0.004-1.449-0.502-2.174-1.521-2.179l-1.191,0.045c-0.158,0-0.294-0.017-0.407-0.049c-0.19-0.084-0.284-0.212-0.284-0.388
		c0-0.228,0.208-0.396,0.625-0.509c0.542-0.124,1.037-0.272,1.485-0.444l1.461-0.588c1.117-0.437,1.894-0.813,2.326-1.129
		c0.191-0.12,0.349-0.185,0.477-0.185c0.24-0.017,0.358,0.333,0.356,1.041L77.95,132.837z"/>
	<path clip-path="url(#SVGID_16_)" fill="#15284B" d="M88.863,136.46c0.384,0,0.773,0.316,1.173,0.949l0.572,0.905
		c0.158,0.224,0.239,0.42,0.237,0.592c0.016,0.364-0.257,0.873-0.819,1.521c-0.563,0.649-1.011,0.97-1.345,0.97
		c-0.321,0-0.743-0.32-1.267-0.953c-0.529-0.637-0.789-1.133-0.789-1.497s0.294-0.873,0.879-1.518
		C88.09,136.78,88.543,136.456,88.863,136.46 M90.28,162.214c-0.002,1.121,0.118,1.87,0.364,2.25c0.245,0.38,0.765,0.624,1.56,0.737
		l1.097,0.12c0.572,0.08,0.85,0.28,0.832,0.604c-0.016,0.261-0.232,0.394-0.646,0.389c-0.272,0-0.789-0.036-1.553-0.112
		c-0.431-0.036-0.989-0.056-1.674-0.056l-1.529-0.032l-1.746,0.088c-0.32,0.016-0.568,0.036-0.742,0.068
		c-0.415,0.049-0.703,0.068-0.861,0.068c-0.431,0-0.645-0.145-0.645-0.437c0.002-0.244,0.146-0.412,0.431-0.508l0.452-0.141
		c0.513-0.173,0.865-0.469,1.065-0.893c0.2-0.425,0.302-1.109,0.304-2.055l0.028-10.284c0.004-1.31-0.12-2.158-0.374-2.551
		c-0.254-0.396-0.801-0.592-1.643-0.596c-0.605,0-0.897-0.125-0.881-0.373c0.016-0.216,0.424-0.443,1.223-0.688
		c0.895-0.297,2.03-0.797,3.405-1.502l1.269-0.588c0.208,0.016,0.31,0.207,0.308,0.567L90.28,162.214z"/>
	<path clip-path="url(#SVGID_16_)" fill="#15284B" d="M107.315,156.642c-2.466,0.212-4.372,0.761-5.717,1.641
		c-1.347,0.881-2.022,2.015-2.026,3.392c-0.004,1.081,0.317,1.938,0.953,2.573c0.639,0.638,1.501,0.957,2.594,0.962
		c1.326,0,2.442-0.425,3.345-1.285c0.555-0.544,0.835-1.413,0.837-2.606L107.315,156.642z M107.317,155.696l0.008-2.914
		c0.006-1.802-0.334-3.047-1.015-3.735c-0.921-0.944-2.158-1.417-3.717-1.421c-2.1-0.005-3.149,0.864-3.155,2.613
		c-0.002,0.518,0.1,1.113,0.304,1.782c0.094,0.284,0.151,0.532,0.167,0.753c0.014,0.28-0.144,0.42-0.477,0.416
		c-0.74,0-1.417-0.16-2.021-0.477c-0.609-0.316-0.911-0.664-0.909-1.04c0.002-0.974,0.536-2.022,1.605-3.147
		c1.435-1.521,3.337-2.273,5.705-2.27c2.162,0.008,3.839,0.487,5.028,1.44c1.189,0.957,1.784,2.303,1.778,4.032l-0.024,9.252
		c-0.004,1.461,0.172,2.506,0.528,3.126c0.356,0.625,0.953,0.938,1.798,0.938c0.238,0,0.428-0.013,0.572-0.036
		c0.284-0.068,0.477-0.101,0.573-0.101c0.268-0.016,0.396,0.093,0.38,0.328c-0.016,0.285-0.392,0.573-1.127,0.861
		c-0.735,0.292-1.451,0.432-2.154,0.432c-1.307-0.004-2.488-0.812-3.533-2.422c-2.306,1.73-4.444,2.59-6.413,2.582
		c-1.49-0.004-2.674-0.404-3.555-1.201c-0.877-0.8-1.315-1.869-1.312-3.206c0.007-1.813,0.843-3.215,2.511-4.212
		C100.529,157.073,103.348,156.285,107.317,155.696"/>
	<path clip-path="url(#SVGID_16_)" fill="#15284B" d="M122.848,150.067c2.138-2.498,4.35-3.743,6.64-3.738
		c2.544,0.008,4.552,1.045,6.023,3.113c1.017,1.427,1.519,3.588,1.509,6.49l-0.014,5.653l-0.026,0.708l0.068,1.137
		c0.172,1.045,0.837,1.654,1.998,1.83l1.001,0.144c0.43,0.061,0.652,0.217,0.668,0.466c0.012,0.336-0.248,0.504-0.789,0.5
		c-0.173,0-0.482-0.024-0.924-0.08c-0.525-0.076-1.493-0.112-2.903-0.116l-2.356,0.063l-0.902-0.004l-0.691,0.048l-0.334-0.075
		c-0.11-0.064-0.165-0.185-0.165-0.365c0-0.24,0.145-0.396,0.431-0.46l0.716-0.185c0.635-0.155,0.955-0.721,0.959-1.697l0.022-8.139
		c0.006-2.189-0.498-3.88-1.515-5.068c-1.017-1.189-2.466-1.789-4.346-1.793c-1.323-0.004-2.498,0.38-3.529,1.148
		c-1.029,0.769-1.545,1.649-1.549,2.643l-0.024,9.02l0.02,0.708l0.022,1.186c0.074,1.324,1.179,2.054,3.309,2.186
		c0.524,0.052,0.789,0.22,0.786,0.512c-0.001,0.293-0.186,0.434-0.55,0.434c-0.272,0-0.677-0.044-1.217-0.137
		c-0.3-0.035-1.049-0.056-2.242-0.06c-2.526-0.008-4.037,0.024-4.53,0.096c-0.494,0.053-0.811,0.076-0.955,0.076
		c-0.302,0-0.444-0.128-0.428-0.388c0.016-0.197,0.168-0.35,0.456-0.465c0.811-0.276,1.358-0.624,1.636-1.029
		c0.278-0.412,0.42-1.073,0.422-1.981l0.03-10.666c0.002-1.116-0.13-1.877-0.398-2.277c-0.272-0.404-0.779-0.604-1.525-0.608
		l-1.025,0.021c-0.145,0-0.273-0.032-0.383-0.097c-0.142-0.067-0.214-0.18-0.214-0.34c0-0.229,0.208-0.381,0.621-0.461
		c1.067-0.184,2.094-0.504,3.08-0.961l1.268-0.608c0.492-0.235,0.802-0.384,0.928-0.448c0.224-0.124,0.415-0.188,0.573-0.188
		c0.288,0.004,0.414,0.233,0.38,0.689c-0.016,0.252-0.024,0.552-0.026,0.896L122.848,150.067z"/>
	<path clip-path="url(#SVGID_16_)" fill="#15284B" d="M153.134,146.396c1.369,0.004,2.588,0.176,3.659,0.521
		c1.073,0.345,1.609,0.736,1.607,1.169l-0.026,0.709l0.162,1.797c-0.001,0.837-0.197,1.27-0.586,1.298
		c-0.178,0.016-0.404-0.217-0.678-0.701c-0.507-0.905-1.358-1.688-2.553-2.354c-1.197-0.668-2.358-1.001-3.483-1.005
		c-1.557-0.005-2.826,0.696-3.815,2.102c-0.989,1.405-1.485,3.219-1.489,5.437c-0.008,2.626,0.744,4.853,2.254,6.674
		c1.511,1.817,3.361,2.734,5.552,2.738c1.762,0.004,3.491-0.709,5.195-2.134c0.21-0.176,0.406-0.268,0.586-0.284
		c0.245-0.031,0.369,0.08,0.369,0.328c-0.002,0.349-0.387,0.857-1.149,1.525c-1.978,1.754-4.35,2.622-7.116,2.614
		c-2.545-0.009-4.668-0.929-6.372-2.767c-1.705-1.837-2.554-4.111-2.546-6.817c0.008-3.022,1.029-5.584,3.063-7.698
		C147.801,147.438,150.256,146.389,153.134,146.396"/>
	<path clip-path="url(#SVGID_16_)" fill="#15284B" d="M165.124,153.211l8.085,0.02c1.255,0.004,1.884-0.244,1.886-0.749
		c0.004-1.229-0.531-2.374-1.6-3.431c-1.071-1.062-2.234-1.589-3.491-1.594c-1.303-0.004-2.39,0.509-3.259,1.541
		C165.877,150.023,165.336,151.433,165.124,153.211 M164.978,154.508l-0.026,0.52c-0.008,2.695,0.739,4.961,2.238,6.802
		c1.501,1.839,3.351,2.764,5.549,2.768c1.733,0.004,3.623-0.761,5.666-2.298c0.127-0.097,0.247-0.153,0.359-0.168
		c0.224-0.014,0.334,0.111,0.334,0.38c-0.002,0.468-0.56,1.133-1.675,1.994c-2.07,1.593-4.26,2.386-6.566,2.378
		c-2.59-0.004-4.764-0.985-6.514-2.943c-1.751-1.958-2.622-4.372-2.614-7.254c0.006-2.738,0.919-5.128,2.739-7.178
		c1.817-2.051,3.943-3.071,6.375-3.063c2.656,0.008,4.774,1.109,6.359,3.303c0.379,0.536,0.765,1.262,1.161,2.179
		c0.397,0.913,0.593,1.549,0.593,1.913c-0.004,0.521-0.521,0.78-1.557,0.776l-1.766-0.027l-1.625-0.053L164.978,154.508z"/>
</g>
</svg>
