<?xml version="1.0" encoding="utf-8"?>
<!-- Generator: Adobe Illustrator 16.0.4, SVG Export Plug-In . SVG Version: 6.00 Build 0)  -->
<!DOCTYPE svg PUBLIC "-//W3C//DTD SVG 1.1//EN" "http://www.w3.org/Graphics/SVG/1.1/DTD/svg11.dtd">
<svg version="1.1" xmlns="http://www.w3.org/2000/svg" xmlns:xlink="http://www.w3.org/1999/xlink" x="0px" y="0px" width="234px"
	 height="186px" viewBox="0 0 234 186" enable-background="new 0 0 234 186" xml:space="preserve">
<g id="Layer_1">
	<g>
		<rect fill="#030BD3" width="234" height="186"/>
		<g>
			<rect x="43.758" y="76.43" fill="none" width="33.15" height="33.149"/>
			<path fill="#C5E9F7" d="M63.625,103.204c-0.125,0-0.252-0.018-0.375-0.056L47.828,98.42c-0.662-0.146-2.795-0.899-2.795-4.554
				c0-1.789,0.738-2.794,1.357-3.321c0.879-0.747,2.131-1.055,3.439-0.844c0.693,0.112,1.167,0.768,1.055,1.462
				c-0.111,0.694-0.76,1.169-1.463,1.057c-0.568-0.093-1.072,0.007-1.379,0.266c-0.305,0.263-0.461,0.726-0.461,1.381
				c0,1.478,0.482,1.992,0.768,2.061c0.082,0.009,0.094,0.015,0.172,0.038l14.652,4.494l9.744-12.032
				c-0.127-0.598-0.142-1.459,0.229-2.59c0.221-0.668,0.939-1.034,1.609-0.814c0.669,0.22,1.033,0.939,0.814,1.608
				c-0.314,0.96-0.131,1.371-0.129,1.377c0.352,0.466,0.275,1.015-0.093,1.468l-10.733,13.257
				C64.369,103.037,64.002,103.204,63.625,103.204z"/>
			<path fill="#C5E9F7" d="M63.625,109.588c-0.13,0-0.262-0.019-0.389-0.06l-15.477-4.95c-1.027-0.352-2.727-1.729-2.727-4.72
				c0-2.297,1.623-3.654,1.809-3.801c0.551-0.438,1.354-0.351,1.793,0.203c0.436,0.551,0.346,1.354-0.205,1.79
				c-0.023,0.022-0.848,0.721-0.848,1.808c0,1.831,0.913,2.271,1.018,2.312l14.588,4.664l9.701-11.818
				c-0.424-1.23-0.926-3.707,0.281-6.805c0.256-0.656,0.994-0.983,1.65-0.726c0.658,0.255,0.98,0.996,0.727,1.652
				c-1.25,3.206-0.117,5.396-0.07,5.487c0.242,0.454,0.193,1.021-0.133,1.42l-10.734,13.076
				C64.363,109.424,63.998,109.588,63.625,109.588z"/>
			<path fill="#C5E9F7" d="M75.566,80.93c-0.129-0.382-0.451-0.665-0.846-0.75L58.76,76.562c-0.412-0.085-0.843,0.056-1.119,0.377
				L46.238,89.628c-0.262,0.296-1.205,1.644-1.205,3.674c0.637-0.788,1.395-1.907,1.78-1.803l15.679,4.729
				c0.1,0.028,0.201,0.038,0.301,0.038c0.34,0,0.672-0.152,0.895-0.422l11.684-13.802C75.629,81.732,75.701,81.308,75.566,80.93z
				 M67.041,83.657l-0.879,1.041c-0.244,0.289-0.811,0.432-1.262,0.326l-8.184-1.996c-0.451-0.106-0.623-0.432-0.381-0.716
				l0.879-1.046c0.244-0.285,0.809-0.43,1.264-0.322l8.182,1.992C67.111,83.045,67.283,83.37,67.041,83.657z"/>
		</g>
		<g>
			<path fill="#C5E9F7" d="M129.877,92.847v9.816c0,0.773-0.629,1.402-1.403,1.402h-16.829c-0.773,0-1.404-0.629-1.404-1.402v-9.816
				h-2.803v9.816c0,2.322,1.883,4.208,4.207,4.208h16.829c2.323,0,4.207-1.886,4.207-4.208v-9.816H129.877z"/>
			<path fill="#C5E9F7" d="M113.047,99.858c0-0.773,0.631-1.402,1.4-1.402h11.221c0.773,0,1.404,0.629,1.404,1.402l0,0
				c0,0.772-0.631,1.402-1.404,1.402h-11.221C113.678,101.261,113.047,100.631,113.047,99.858L113.047,99.858z"/>
			<path fill="#C5E9F7" d="M113.109,94.298c0.074-0.768,0.762-1.334,1.531-1.261l11.168,1.084c0.768,0.073,1.334,0.762,1.26,1.529
				l0,0c-0.076,0.771-0.762,1.337-1.53,1.263l-11.169-1.084C113.602,95.756,113.035,95.067,113.109,94.298L113.109,94.298z"/>
			<path fill="#C5E9F7" d="M114.275,87.513c0.217-0.742,1.002-1.167,1.741-0.947l10.764,3.167c0.741,0.22,1.167,1.003,0.949,1.743
				l0,0c-0.22,0.741-1.001,1.168-1.741,0.949l-10.764-3.168C114.482,89.038,114.059,88.253,114.275,87.513L114.275,87.513z"/>
			<path fill="#C5E9F7" d="M117.928,80.472c0.439-0.635,1.317-0.794,1.951-0.354l9.225,6.39c0.637,0.439,0.797,1.314,0.354,1.951
				l0,0c-0.438,0.633-1.314,0.791-1.947,0.352l-9.227-6.383C117.648,81.983,117.488,81.107,117.928,80.472L117.928,80.472z"/>
			<path fill="#C5E9F7" d="M124.442,74.223c0.649-0.422,1.522-0.237,1.944,0.407l6.125,9.4c0.426,0.648,0.24,1.519-0.408,1.941l0,0
				c-0.643,0.421-1.52,0.236-1.938-0.408l-6.131-9.396C123.611,75.515,123.799,74.645,124.442,74.223L124.442,74.223z"/>
			<path fill="#C5E9F7" d="M133.441,71.063c0.769-0.113,1.479,0.423,1.59,1.185l1.6,11.108c0.111,0.766-0.422,1.478-1.189,1.589l0,0
				c-0.762,0.108-1.477-0.427-1.586-1.189l-1.604-11.106C132.145,71.885,132.68,71.17,133.441,71.063L133.441,71.063z"/>
		</g>
		<path fill="#C5E9F7" d="M179.656,72.723c-5.5,0-9.961,4.461-9.961,9.961c0,5.502,8.686,15.312,8.686,22.711h2.55
			c0-7.375,8.687-17.658,8.687-22.711C189.617,77.184,185.156,72.723,179.656,72.723z M179.656,86.768
			c-2.254,0-4.082-1.83-4.082-4.084s1.828-4.082,4.082-4.082s4.082,1.828,4.082,4.082S181.91,86.768,179.656,86.768z"/>
	</g>
</g>
<g id="Layer_2">
</g>
</svg>
