<?xml version="1.0" encoding="utf-8"?>
<!-- Generator: Adobe Illustrator 16.0.4, SVG Export Plug-In . SVG Version: 6.00 Build 0)  -->
<!DOCTYPE svg PUBLIC "-//W3C//DTD SVG 1.1//EN" "http://www.w3.org/Graphics/SVG/1.1/DTD/svg11.dtd">
<svg version="1.1" xmlns="http://www.w3.org/2000/svg" xmlns:xlink="http://www.w3.org/1999/xlink" x="0px" y="0px" width="234px"
	 height="186px" viewBox="0 0 234 186" enable-background="new 0 0 234 186" xml:space="preserve">
<g id="Layer_1">
	<g>
		<rect fill="#030BD3" width="234" height="186"/>
		<g>
			<defs>
				<rect id="SVGID_185_" x="141.164" y="62.798" width="27.427" height="49.314"/>
			</defs>
			<clipPath id="SVGID_2_">
				<use xlink:href="#SVGID_185_"  overflow="visible"/>
			</clipPath>
			<path clip-path="url(#SVGID_2_)" fill="#ECC700" d="M156.276,111.656c-0.534-2.685-1.108-5.406-1.26-8.14
				c-0.081-1.468,0.556-1.317,1.983-2.153c2.021-1.189,3.574-3.392,2.803-3.68c-0.699-0.262,0.113-1.381,0.373-1.688
				c0.879-1.037,2.271-1.74,3.72-2.069c1.192-0.657,2.624-2.292,3.073-3.378c0.36-0.868-0.72-1.51-1.629-0.872
				c-0.232,0.164-1.646,2.08-1.518,2.119c-1.314-0.406,1.18-3.672,1.04-4.438c-0.085-0.475-1.272-0.325-1.462,0.065
				c-0.442,0.91-0.729,1.899-1.145,2.823c-0.5,1.109-1.284,2.131-2.098,3.113c-1.291,1.563-1.046,0.592-0.701-0.678
				c0.082-0.296,0.322-1.538-0.561-1.234c-1.059,0.365-1.187,2.291-1.295,2.999c-0.148,0.974,0.104,2.68-0.368,3.614
				c-0.354,0.702-1.554,1.269-2.099,1.896c-0.842,0.963-0.768-2.295-0.76-2.4c0.064-1.025-0.078-2.194,0.627-3.094
				c0.675-0.858,1.355-1.712,2.041-2.562c1.786-2.218,3.579-4.454,5.586-6.545c1.167-1.214,2.673-2.056,3.941-3.211
				c0.35-0.317,3.287-3.397,1.383-3.487c-0.453-0.021-4.18,4.384-3.048,1.259c0.198-0.566,1.894-3.508,0.709-3.726
				c-1.735-0.318-2.145,3.386-2.237,4.039c-0.211,1.498-0.854,2.605-1.744,3.875c-0.38,0.543-0.395-0.072-0.365-0.383
				c0.107-1.16,0.587-2.302,0.666-3.458c0.014-0.211-0.457-1.455-0.948-0.982c-1.456,1.402-1.481,4.579-1.774,6.223
				c0.008-0.05,0.002-0.197,0.036-0.232c-0.23,0.238-0.228,0.996-0.287,1.267c-0.23,1.077-0.627,1.373-1.494,2.178
				c-0.724,0.674-1.437,1.357-2.117,2.062c-0.075,0.078-0.811,1.046-0.859,1.05c-0.962,0.097-0.97-3.343-0.923-3.689
				c0.174-1.284,0.75-2.584,1.187-3.828c0.272-0.781,0.593-3.048,1.354-3.581c1.004-0.701,1.896-1.524,2.752-2.342
				c2.228-2.133,4.146-4.454,5.916-6.849c0.534-0.722,0.932-1.44,1.342-2.195c0.275-0.51,0.62-2.488-0.313-1.268
				c-0.646,0.845-1.405,2.24-2.438,2.809c-0.903,0.813-1.271,0.806-0.857-0.478c0.279-0.96,0.701-1.891,0.857-2.872
				c0.1-0.635-0.505-1.262-1.197-0.523c-2.019,2.151-0.461,5.431-1.903,7.604c-0.224,0.337-2.338,3.622-2.881,3.119
				c-0.845-0.78-0.599-2.71-0.608-3.652c-0.02-1.826,0.096-3.658,0.246-5.484c0.059-0.719-0.018-1.104,0.506-1.644
				c0.51-0.525,1.014-1.099,1.312-1.725c0.31-0.652-0.261-1.852-1.251-1.155c-0.449,0.318-0.799,1.523-1.231,0.641
				c-0.286-0.586-0.128-1.598-0.935-1.881c-0.916-0.323-0.784,1.622-0.771,1.886c0.093,2.346,0.577,4.653,0.563,7.014
				c-0.003,0.677-0.187,1.257-0.313,1.895c-0.209,1.044-1.318-1.521-1.358-1.62c-0.169-0.894,0.084-1.852-0.122-2.764
				c-0.303-1.342-1.645-0.724-1.553,0.434c0.117,1.495-0.822,0.292-1.453-0.227c-0.205-0.169-2.593-2.172-2.816-1.942
				c-2.876,0.533,3.621,4.836,3.93,5.105c1.248,1.097,2.753,2.446,3.283,3.941c0.34,0.963-0.1,1.768-0.42,2.72
				c-0.428,1.27-0.859,2.54-1.303,3.807c-0.18,0.504-1.059,1.929-0.908,2.423c0.634,2.117-3.182-0.989-3.471-1.729
				c-0.716-1.819,0.135-4.037,1.919-5.453c1.002-0.794-0.484-0.688-1.083-0.216c-1.092,0.864-0.838-1.327-0.914-1.786
				c-0.229-1.376-1.093,0.554-1.186,0.999c-0.255,1.244-0.418,2.465-0.481,3.715c-0.083,1.618-0.295,0.544-0.945-0.066
				c-1.207-1.13-2.421-2.551-2.682-4.094c-0.089-0.53-1.434-2.491-1.955-1.422c-0.525,1.072-0.014,2.078,0.597,2.97
				c1.27,1.853,2.625,3.601,4.148,5.299c1.329,1.482,2.851,2.854,4.504,4.092c0.335,0.317,0.607,0.594,0.817,0.999
				c0.681,1.314,0.864,2.823,0.967,4.256c0.04,0.552-0.366,6.263-0.168,8.227c0.222,2.185,0.718,4.324,1.073,6.461
				c0.199,1.202,0.402,2.407,0.531,3.619C153.979,112.568,155.15,112.046,156.276,111.656"/>
		</g>
		<g>
			<defs>
				<rect id="SVGID_187_" x="20.981" y="79.213" width="39.91" height="27.237"/>
			</defs>
			<clipPath id="SVGID_4_">
				<use xlink:href="#SVGID_187_"  overflow="visible"/>
			</clipPath>
			<path clip-path="url(#SVGID_4_)" fill="#34C3F1" d="M57.035,100.445l-19.268,5.072c-10.236,2.693-15.069-0.769-16.404-6.269
				c-1.332-5.498,0.749-10.784,7.309-12.508c5.697-1.499,9.646,1.823,14.336,6.779c4.867,5.142,8.783,8.035,13.965,6.675
				L57.035,100.445z"/>
			<path clip-path="url(#SVGID_4_)" fill="#34C3F1" d="M60.852,94.477l-10.539-3.4c-5.594-1.811-6.817-4.878-5.793-7.852
				c1.026-2.965,3.578-4.819,7.166-3.662c3.112,1.005,3.967,3.744,4.675,7.465c0.735,3.869,1.702,6.395,4.531,7.307L60.852,94.477z"
				/>
		</g>
		<g>
			<defs>
				<rect id="SVGID_189_" x="79.57" y="62.021" width="38.568" height="48.501"/>
			</defs>
			<clipPath id="SVGID_6_">
				<use xlink:href="#SVGID_189_"  overflow="visible"/>
			</clipPath>
			<path clip-path="url(#SVGID_6_)" fill="#C5E9F7" d="M95.737,74.825l-11.362,8.258v-7.236h2.738v-5.952l4.747-0.043l0.015-7.83
				c1.094,0,11.654,0.03,14.143,0l-0.064,7.796h4.646v4.062h2.73v9.196l-11.356-8.251C100.256,73.579,97.453,73.579,95.737,74.825"
				/>
			<path clip-path="url(#SVGID_6_)" fill="#C5E9F7" d="M115.991,87.583l-2.662-1.938l-11.356-8.253
				c-0.649-0.47-1.464-0.702-2.3-0.819v27.556c0,0.45-0.366,0.818-0.817,0.818c-0.449,0-0.816-0.368-0.816-0.818V76.573
				c-0.841,0.117-1.654,0.35-2.302,0.819l-11.362,8.261l-2.657,1.93c-1.717,1.242-2.581,3.91-1.931,5.93l6.542,16.631
				c0.507,0.212,1.048,0.344,1.657,0.36c2.172-0.05,3.626-1.316,4.773-4.098c0.023-0.083,0.053-0.146,0.09-0.218
				c0.118-0.172,0.281-0.287,0.479-0.287c0.193,0,0.363,0.117,0.486,0.287h0.004c0.01,0.033,0.017,0.038,0.022,0.062
				c0.021,0.047,0.046,0.072,0.06,0.117c1.174,2.877,2.65,4.154,4.925,4.154h0.014c2.251,0,3.726-1.268,4.898-4.116
				c0.023-0.083,0.054-0.146,0.088-0.218c0.114-0.172,0.283-0.287,0.481-0.287c0.195,0,0.37,0.117,0.482,0.287h0.003
				c0.011,0.033,0.026,0.038,0.034,0.062c0.016,0.047,0.037,0.072,0.051,0.117c1.156,2.834,2.613,4.104,4.816,4.143
				c0.621-0.01,1.171-0.149,1.682-0.367l6.546-16.631C118.574,91.493,117.705,88.825,115.991,87.583"/>
		</g>
		<g>
			<defs>
				<rect id="SVGID_191_" x="187.117" y="73.391" width="18.295" height="31.008"/>
			</defs>
			<clipPath id="SVGID_8_">
				<use xlink:href="#SVGID_191_"  overflow="visible"/>
			</clipPath>
			<path clip-path="url(#SVGID_8_)" fill="#FFFFFF" d="M196.264,79.747c-1.096,0-2.146,0.194-3.121,0.549
				c1.07-1.493,2.406-3.088,4.025-4.817v-0.002c0.207-0.222,0.337-0.517,0.337-0.846c0-0.685-0.556-1.24-1.241-1.24
				c-0.357,0-0.676,0.152-0.902,0.394l-0.002-0.001c-4.288,4.573-6.752,8.38-7.67,11.929c-0.369,0.992-0.572,2.064-0.572,3.183
				c0,5.044,4.102,9.147,9.146,9.147c1.096,0,2.146-0.194,3.121-0.549c-1.07,1.493-2.404,3.088-4.025,4.816l0.002,0.003
				c-0.207,0.222-0.338,0.518-0.338,0.846c0,0.685,0.555,1.24,1.24,1.24c0.357,0,0.676-0.152,0.904-0.395v0.002
				c4.289-4.574,6.754-8.38,7.672-11.929c0.369-0.992,0.572-2.064,0.572-3.183C205.412,83.851,201.309,79.747,196.264,79.747"/>
		</g>
	</g>
</g>
<g id="Layer_2">
</g>
</svg>
