<?xml version="1.0" encoding="utf-8"?>
<!-- Generator: Adobe Illustrator 16.0.4, SVG Export Plug-In . SVG Version: 6.00 Build 0)  -->
<!DOCTYPE svg PUBLIC "-//W3C//DTD SVG 1.1//EN" "http://www.w3.org/Graphics/SVG/1.1/DTD/svg11.dtd">
<svg version="1.1" xmlns="http://www.w3.org/2000/svg" xmlns:xlink="http://www.w3.org/1999/xlink" x="0px" y="0px" width="20px"
	 height="24px" viewBox="0 0 20 24" enable-background="new 0 0 20 24" xml:space="preserve">
<g id="Layer_1">
	<g>
		<path fill="#030BD3" d="M15.224,14.591v6.545c0,0.516-0.419,0.936-0.936,0.936H3.068c-0.516,0-0.936-0.42-0.936-0.936v-6.545
			H0.264v6.545c0,1.549,1.256,2.805,2.805,2.805h11.22c1.549,0,2.805-1.256,2.805-2.805v-6.545H15.224z"/>
		<path fill="#030BD3" d="M4.004,19.267c0-0.516,0.42-0.936,0.934-0.936h7.48c0.516,0,0.936,0.42,0.936,0.936l0,0
			c0,0.514-0.42,0.934-0.936,0.934h-7.48C4.424,20.2,4.004,19.78,4.004,19.267L4.004,19.267z"/>
		<path fill="#030BD3" d="M4.045,15.56c0.05-0.512,0.508-0.891,1.021-0.842l7.445,0.723c0.512,0.049,0.889,0.508,0.84,1.02l0,0
			c-0.051,0.514-0.508,0.893-1.021,0.842l-7.446-0.723C4.373,16.53,3.996,16.071,4.045,15.56L4.045,15.56z"/>
		<path fill="#030BD3" d="M4.822,11.036c0.145-0.496,0.668-0.779,1.161-0.633l7.176,2.111c0.494,0.146,0.778,0.67,0.633,1.162l0,0
			c-0.146,0.494-0.667,0.779-1.161,0.633l-7.176-2.111C4.961,12.052,4.678,11.528,4.822,11.036L4.822,11.036z"/>
		<path fill="#030BD3" d="M7.258,6.341c0.293-0.422,0.878-0.529,1.301-0.236l6.149,4.26c0.425,0.293,0.531,0.877,0.235,1.301l0,0
			c-0.291,0.422-0.876,0.527-1.298,0.234L7.494,7.646C7.071,7.349,6.965,6.765,7.258,6.341L7.258,6.341z"/>
		<path fill="#030BD3" d="M11.601,2.175c0.433-0.281,1.015-0.158,1.296,0.271l4.084,6.268c0.283,0.432,0.16,1.012-0.272,1.295l0,0
			c-0.429,0.279-1.013,0.156-1.292-0.273l-4.087-6.264C11.047,3.036,11.172,2.456,11.601,2.175L11.601,2.175z"/>
		<path fill="#030BD3" d="M17.6,0.069c0.513-0.076,0.986,0.281,1.061,0.789l1.066,7.406c0.074,0.51-0.281,0.984-0.793,1.059l0,0
			c-0.508,0.072-0.984-0.283-1.058-0.793l-1.069-7.404C16.735,0.616,17.092,0.14,17.6,0.069L17.6,0.069z"/>
	</g>
</g>
<g id="Layer_2">
</g>
</svg>
