<?xml version="1.0" encoding="utf-8"?>
<!-- Generator: Adobe Illustrator 16.0.4, SVG Export Plug-In . SVG Version: 6.00 Build 0)  -->
<!DOCTYPE svg PUBLIC "-//W3C//DTD SVG 1.1//EN" "http://www.w3.org/Graphics/SVG/1.1/DTD/svg11.dtd">
<svg version="1.1" xmlns="http://www.w3.org/2000/svg" xmlns:xlink="http://www.w3.org/1999/xlink" x="0px" y="0px" width="24px"
	 height="24px" viewBox="0 0 24 24" enable-background="new 0 0 24 24" xml:space="preserve">
<g id="Layer_1">
	<path fill="#FFFFFF" d="M12,0.188C5.477,0.188,0.188,5.477,0.188,12S5.477,23.812,12,23.812S23.812,18.523,23.812,12
		S18.523,0.188,12,0.188z M14.459,18.495c-0.609,0.24-1.092,0.422-1.455,0.548c-0.362,0.126-0.783,0.189-1.262,0.189
		c-0.736,0-1.309-0.18-1.717-0.539s-0.611-0.814-0.611-1.367c0-0.215,0.015-0.435,0.045-0.659c0.031-0.224,0.08-0.476,0.147-0.759
		l0.761-2.688c0.066-0.258,0.125-0.503,0.171-0.731c0.046-0.23,0.068-0.441,0.068-0.633c0-0.342-0.071-0.582-0.212-0.717
		c-0.143-0.135-0.412-0.201-0.812-0.201c-0.197,0-0.398,0.029-0.605,0.09c-0.205,0.062-0.383,0.12-0.529,0.176l0.201-0.828
		c0.498-0.203,0.975-0.377,1.43-0.521c0.455-0.146,0.885-0.218,1.289-0.218c0.732,0,1.296,0.178,1.693,0.53
		c0.395,0.353,0.594,0.812,0.594,1.376c0,0.117-0.014,0.323-0.041,0.617c-0.027,0.295-0.078,0.564-0.152,0.811l-0.757,2.68
		c-0.062,0.215-0.117,0.461-0.167,0.736c-0.049,0.275-0.073,0.485-0.073,0.626c0,0.356,0.079,0.599,0.239,0.728
		c0.158,0.129,0.435,0.194,0.827,0.194c0.185,0,0.392-0.033,0.626-0.097c0.232-0.064,0.4-0.121,0.506-0.17L14.459,18.495z
		 M14.325,7.617c-0.353,0.328-0.778,0.492-1.276,0.492c-0.495,0-0.923-0.164-1.279-0.492c-0.354-0.328-0.533-0.727-0.533-1.193
		c0-0.465,0.18-0.865,0.533-1.196c0.356-0.332,0.784-0.497,1.279-0.497c0.498,0,0.924,0.165,1.276,0.497
		c0.353,0.331,0.53,0.731,0.53,1.196C14.855,6.891,14.678,7.289,14.325,7.617z"/>
</g>
<g id="Layer_2">
</g>
</svg>
