<?xml version="1.0" encoding="utf-8"?>
<!-- Generator: Adobe Illustrator 16.0.4, SVG Export Plug-In . SVG Version: 6.00 Build 0)  -->
<!DOCTYPE svg PUBLIC "-//W3C//DTD SVG 1.1//EN" "http://www.w3.org/Graphics/SVG/1.1/DTD/svg11.dtd">
<svg version="1.1" xmlns="http://www.w3.org/2000/svg" xmlns:xlink="http://www.w3.org/1999/xlink" x="0px" y="0px" width="23px"
	 height="23px" viewBox="0 0 23 23" enable-background="new 0 0 23 23" xml:space="preserve">
<g id="Layer_1">
	<g>
		<rect x="0.45" y="0.447" fill="none" width="22.101" height="22.1"/>
		<path fill="#030BD3" d="M13.695,18.297c-0.084,0-0.168-0.012-0.25-0.037L3.164,15.107C2.722,15.01,1.3,14.508,1.3,12.072
			c0-1.193,0.492-1.863,0.904-2.215c0.586-0.498,1.421-0.703,2.293-0.562C4.96,9.371,5.276,9.807,5.201,10.27
			c-0.074,0.463-0.506,0.779-0.975,0.705c-0.379-0.062-0.715,0.004-0.92,0.178C3.103,11.326,3,11.635,3,12.072
			c0,0.984,0.321,1.328,0.512,1.373c0.055,0.006,0.062,0.01,0.114,0.025l9.769,2.996l6.496-8.021
			c-0.085-0.398-0.095-0.973,0.152-1.727c0.146-0.445,0.626-0.689,1.072-0.543s0.688,0.627,0.543,1.072
			c-0.209,0.641-0.087,0.914-0.086,0.918c0.234,0.311,0.184,0.678-0.062,0.979l-7.155,8.838
			C14.191,18.186,13.946,18.297,13.695,18.297z"/>
		<path fill="#030BD3" d="M13.695,22.553c-0.087,0-0.175-0.012-0.26-0.039L3.118,19.213C2.433,18.979,1.3,18.061,1.3,16.066
			c0-1.531,1.082-2.436,1.205-2.533c0.367-0.293,0.902-0.234,1.195,0.135c0.291,0.367,0.23,0.902-0.137,1.193
			C3.548,14.877,3,15.342,3,16.066c0,1.221,0.608,1.514,0.678,1.543l9.726,3.109l6.468-7.879c-0.283-0.82-0.617-2.473,0.188-4.537
			c0.17-0.438,0.662-0.656,1.1-0.484c0.439,0.17,0.654,0.664,0.484,1.102c-0.833,2.139-0.078,3.598-0.047,3.658
			c0.162,0.303,0.129,0.682-0.088,0.947l-7.156,8.717C14.187,22.443,13.943,22.553,13.695,22.553z"/>
		<path fill="#030BD3" d="M21.656,3.447c-0.086-0.254-0.301-0.443-0.564-0.5L10.451,0.535c-0.274-0.057-0.562,0.037-0.746,0.252
			L2.103,9.246C1.929,9.443,1.3,10.342,1.3,11.695c0.424-0.525,0.93-1.271,1.187-1.201l10.452,3.152
			c0.066,0.02,0.135,0.025,0.201,0.025c0.227,0,0.447-0.102,0.596-0.281l7.789-9.201C21.697,3.982,21.746,3.699,21.656,3.447z
			 M15.972,5.266l-0.586,0.695c-0.163,0.191-0.541,0.287-0.842,0.217l-5.455-1.33C8.789,4.775,8.673,4.559,8.835,4.369l0.586-0.697
			c0.162-0.189,0.539-0.285,0.842-0.215l5.455,1.328C16.019,4.857,16.133,5.074,15.972,5.266z"/>
	</g>
</g>
<g id="Layer_2">
</g>
</svg>
