<?xml version="1.0" encoding="utf-8"?>
<!-- Generator: Adobe Illustrator 16.0.4, SVG Export Plug-In . SVG Version: 6.00 Build 0)  -->
<!DOCTYPE svg PUBLIC "-//W3C//DTD SVG 1.1//EN" "http://www.w3.org/Graphics/SVG/1.1/DTD/svg11.dtd">
<svg version="1.1" xmlns="http://www.w3.org/2000/svg" xmlns:xlink="http://www.w3.org/1999/xlink" x="0px" y="0px"
	 width="22.062px" height="15.467px" viewBox="0 0 22.062 15.467" enable-background="new 0 0 22.062 15.467" xml:space="preserve">
<g id="Layer_1">
	<g>
		<defs>
			<rect id="SVGID_185_" x="0.788" y="0.742" width="20.486" height="13.982"/>
		</defs>
		<clipPath id="SVGID_2_">
			<use xlink:href="#SVGID_185_"  overflow="visible"/>
		</clipPath>
		<path clip-path="url(#SVGID_2_)" fill="#030BD6" d="M19.295,11.642l-9.891,2.604c-5.256,1.383-7.736-0.395-8.422-3.219
			c-0.684-2.82,0.385-5.535,3.753-6.42c2.924-0.77,4.951,0.937,7.358,3.48c2.499,2.639,4.509,4.125,7.169,3.427L19.295,11.642z"/>
		<path clip-path="url(#SVGID_2_)" fill="#030BD6" d="M21.254,8.577l-5.41-1.745c-2.871-0.931-3.5-2.504-2.974-4.031
			c0.526-1.521,1.837-2.474,3.679-1.879c1.598,0.517,2.036,1.922,2.399,3.831c0.378,1.986,0.873,3.283,2.326,3.752L21.254,8.577z"/>
	</g>
</g>
<g id="Layer_2">
</g>
</svg>
