<?xml version="1.0" encoding="utf-8"?>
<!-- Generator: Adobe Illustrator 16.0.4, SVG Export Plug-In . SVG Version: 6.00 Build 0)  -->
<!DOCTYPE svg PUBLIC "-//W3C//DTD SVG 1.1//EN" "http://www.w3.org/Graphics/SVG/1.1/DTD/svg11.dtd">
<svg version="1.1" xmlns="http://www.w3.org/2000/svg" xmlns:xlink="http://www.w3.org/1999/xlink" x="0px" y="0px"
	 width="12.167px" height="19.833px" viewBox="0 0 12.167 19.833" enable-background="new 0 0 12.167 19.833" xml:space="preserve">
<g id="Layer_1">
	<g>
		<defs>
			<rect id="SVGID_185_" x="0.7" y="1.18" width="10.33" height="17.51"/>
		</defs>
		<clipPath id="SVGID_2_">
			<use xlink:href="#SVGID_185_"  overflow="visible"/>
		</clipPath>
		<path clip-path="url(#SVGID_2_)" fill="#030BD6" d="M5.865,4.77c-0.619,0-1.212,0.109-1.762,0.31
			c0.604-0.844,1.358-1.742,2.272-2.72V2.357c0.118-0.125,0.19-0.292,0.19-0.478c0-0.386-0.313-0.7-0.7-0.7
			c-0.202,0-0.382,0.086-0.51,0.224L5.354,1.401C2.933,3.983,1.541,6.133,1.022,8.137C0.814,8.697,0.7,9.303,0.7,9.935
			c0,2.848,2.316,5.165,5.165,5.165c0.619,0,1.212-0.11,1.762-0.31c-0.604,0.842-1.358,1.744-2.273,2.72l0.001,0.001
			c-0.118,0.126-0.191,0.292-0.191,0.479c0,0.387,0.314,0.7,0.701,0.7c0.201,0,0.381-0.086,0.51-0.224v0.001
			c2.422-2.582,3.814-4.73,4.332-6.736c0.208-0.559,0.323-1.166,0.323-1.796C11.029,7.086,8.713,4.77,5.865,4.77"/>
	</g>
</g>
<g id="Layer_2">
</g>
</svg>
