<?xml version="1.0" encoding="utf-8"?>
<!-- Generator: Adobe Illustrator 16.0.4, SVG Export Plug-In . SVG Version: 6.00 Build 0)  -->
<!DOCTYPE svg PUBLIC "-//W3C//DTD SVG 1.1//EN" "http://www.w3.org/Graphics/SVG/1.1/DTD/svg11.dtd">
<svg version="1.1" xmlns="http://www.w3.org/2000/svg" xmlns:xlink="http://www.w3.org/1999/xlink" x="0px" y="0px"
	 width="16.167px" height="25.426px" viewBox="0 0 16.167 25.426" enable-background="new 0 0 16.167 25.426" xml:space="preserve">
<g id="Layer_1">
	<g>
		<defs>
			<rect id="SVGID_185_" x="0.554" y="0.371" width="15.059" height="24.684"/>
		</defs>
		<clipPath id="SVGID_2_">
			<use xlink:href="#SVGID_185_"  overflow="visible"/>
		</clipPath>
		<path clip-path="url(#SVGID_2_)" fill="#030BD6" d="M8.852,24.824c-0.293-1.342-0.609-2.703-0.692-4.072
			c-0.044-0.734,0.306-0.66,1.09-1.078c1.109-0.596,1.962-1.697,1.538-1.842c-0.384-0.131,0.062-0.691,0.204-0.846
			c0.483-0.518,1.247-0.869,2.043-1.035c0.654-0.328,1.441-1.146,1.688-1.689c0.197-0.436-0.396-0.756-0.895-0.438
			c-0.127,0.082-0.903,1.041-0.833,1.061c-0.722-0.203,0.647-1.838,0.571-2.221c-0.047-0.238-0.699-0.162-0.803,0.031
			c-0.243,0.457-0.399,0.951-0.629,1.414c-0.273,0.557-0.705,1.066-1.151,1.559c-0.709,0.783-0.574,0.297-0.385-0.338
			c0.045-0.15,0.177-0.771-0.308-0.619c-0.581,0.182-0.651,1.146-0.711,1.5c-0.082,0.488,0.057,1.342-0.202,1.811
			c-0.194,0.352-0.854,0.635-1.152,0.949c-0.462,0.482-0.422-1.148-0.417-1.201c0.035-0.514-0.043-1.1,0.344-1.549
			c0.371-0.43,0.744-0.857,1.121-1.283c0.98-1.109,1.965-2.229,3.066-3.275c0.641-0.607,1.468-1.029,2.164-1.607
			c0.192-0.16,1.805-1.701,0.76-1.746c-0.249-0.01-2.296,2.195-1.674,0.631c0.108-0.283,1.039-1.756,0.39-1.865
			c-0.953-0.158-1.178,1.695-1.229,2.021c-0.116,0.75-0.469,1.305-0.958,1.939c-0.209,0.271-0.217-0.035-0.2-0.191
			c0.059-0.58,0.322-1.15,0.365-1.73c0.008-0.105-0.251-0.729-0.521-0.49c-0.8,0.701-0.813,2.291-0.974,3.113
			c0.004-0.025,0.001-0.1,0.02-0.117c-0.127,0.119-0.125,0.498-0.157,0.635c-0.127,0.539-0.345,0.688-0.82,1.09
			c-0.397,0.338-0.789,0.68-1.163,1.031C8.301,14.414,7.897,14.898,7.87,14.9c-0.528,0.049-0.532-1.672-0.507-1.846
			c0.096-0.643,0.412-1.293,0.652-1.916c0.149-0.391,0.324-1.527,0.743-1.793C9.31,8.996,9.8,8.584,10.27,8.174
			c1.223-1.068,2.276-2.229,3.248-3.428c0.293-0.361,0.512-0.721,0.737-1.098c0.15-0.256,0.34-1.246-0.173-0.635
			c-0.354,0.422-0.771,1.121-1.339,1.404c-0.496,0.408-0.697,0.404-0.471-0.238c0.153-0.48,0.385-0.945,0.471-1.438
			c0.056-0.318-0.277-0.631-0.657-0.262c-1.108,1.076-0.253,2.719-1.045,3.807C10.918,6.455,9.758,8.1,9.459,7.848
			C8.996,7.457,9.131,6.49,9.125,6.02C9.114,5.105,9.178,4.189,9.26,3.275c0.032-0.361-0.009-0.553,0.278-0.822
			c0.28-0.264,0.557-0.551,0.72-0.863c0.17-0.328-0.143-0.928-0.687-0.58C9.325,1.17,9.133,1.773,8.896,1.33
			c-0.157-0.293-0.07-0.799-0.514-0.941c-0.503-0.16-0.431,0.812-0.423,0.945c0.051,1.174,0.316,2.328,0.309,3.51
			C8.267,5.182,8.165,5.473,8.096,5.793C7.981,6.314,7.372,5.031,7.351,4.98C7.257,4.535,7.396,4.055,7.283,3.598
			C7.116,2.926,6.38,3.236,6.431,3.814c0.063,0.75-0.451,0.146-0.798-0.113C5.521,3.617,4.209,2.615,4.087,2.73
			C2.508,2.996,6.075,5.15,6.243,5.285C6.929,5.834,7.756,6.51,8.046,7.258c0.188,0.48-0.055,0.883-0.23,1.361
			c-0.234,0.635-0.471,1.271-0.715,1.904c-0.099,0.254-0.581,0.965-0.499,1.213c0.349,1.059-1.746-0.494-1.905-0.865
			c-0.393-0.91,0.074-2.02,1.054-2.73C6.3,7.746,5.484,7.799,5.155,8.035C4.557,8.467,4.696,7.369,4.654,7.141
			c-0.126-0.689-0.601,0.275-0.651,0.5C3.863,8.262,3.773,8.873,3.738,9.5C3.693,10.309,3.576,9.771,3.22,9.467
			C2.557,8.9,1.891,8.189,1.747,7.416C1.699,7.152,0.96,6.17,0.674,6.705C0.386,7.242,0.667,7.746,1.002,8.191
			c0.697,0.928,1.441,1.803,2.277,2.652c0.729,0.742,1.564,1.43,2.473,2.049c0.184,0.158,0.334,0.297,0.448,0.498
			c0.374,0.658,0.476,1.416,0.531,2.133c0.022,0.275-0.201,3.133-0.092,4.117c0.121,1.094,0.394,2.164,0.589,3.232
			c0.109,0.602,0.221,1.205,0.291,1.811C7.591,25.281,8.233,25.02,8.852,24.824"/>
	</g>
</g>
<g id="Layer_2">
</g>
</svg>
