<?xml version="1.0" encoding="utf-8"?>
<!-- Generator: Adobe Illustrator 16.0.4, SVG Export Plug-In . SVG Version: 6.00 Build 0)  -->
<!DOCTYPE svg PUBLIC "-//W3C//DTD SVG 1.1//EN" "http://www.w3.org/Graphics/SVG/1.1/DTD/svg11.dtd">
<svg version="1.1" xmlns="http://www.w3.org/2000/svg" xmlns:xlink="http://www.w3.org/1999/xlink" x="0px" y="0px"
	 width="20.333px" height="25.426px" viewBox="0 0 20.333 25.426" enable-background="new 0 0 20.333 25.426" xml:space="preserve">
<g id="Layer_1">
	<g>
		<defs>
			<rect id="SVGID_185_" x="1.417" y="1.396" width="17.999" height="22.634"/>
		</defs>
		<clipPath id="SVGID_2_">
			<use xlink:href="#SVGID_185_"  overflow="visible"/>
		</clipPath>
		<path clip-path="url(#SVGID_2_)" fill="#030BD6" d="M8.962,7.371L3.66,11.225V7.848h1.277l0-2.777L7.153,5.05l0.006-3.653
			c0.511,0,5.439,0.014,6.601,0l-0.03,3.638h2.168V6.93h1.274v4.292l-5.3-3.851C11.07,6.79,9.763,6.79,8.962,7.371"/>
		<path clip-path="url(#SVGID_2_)" fill="#030BD6" d="M18.414,13.325l-1.242-0.904l-5.3-3.852c-0.303-0.219-0.683-0.327-1.073-0.382
			v12.858c0,0.21-0.171,0.382-0.381,0.382s-0.381-0.172-0.381-0.382V8.188C9.644,8.242,9.264,8.351,8.962,8.569l-5.303,3.855
			l-1.239,0.9c-0.802,0.579-1.205,1.824-0.901,2.767l3.053,7.762c0.236,0.099,0.489,0.16,0.773,0.168
			c1.014-0.023,1.692-0.614,2.228-1.912c0.011-0.039,0.025-0.068,0.042-0.102c0.055-0.08,0.131-0.135,0.223-0.135
			c0.09,0,0.169,0.055,0.227,0.135h0.002c0.005,0.016,0.008,0.018,0.011,0.029c0.01,0.021,0.021,0.033,0.027,0.055
			c0.548,1.342,1.237,1.938,2.299,1.938h0.006c1.051,0,1.739-0.593,2.286-1.921c0.011-0.039,0.025-0.068,0.041-0.102
			c0.054-0.08,0.132-0.135,0.225-0.135c0.091,0,0.173,0.055,0.226,0.135h0.001c0.005,0.016,0.013,0.018,0.017,0.029
			c0.007,0.021,0.017,0.033,0.023,0.055c0.54,1.322,1.22,1.914,2.247,1.933c0.291-0.005,0.547-0.069,0.785-0.171l3.055-7.762
			C19.619,15.149,19.214,13.904,18.414,13.325"/>
	</g>
</g>
<g id="Layer_2">
</g>
</svg>
